<?xml version="1.0" standalone="no"?>
 <!DOCTYPE svg PUBLIC "-//W3C//DTD SVG 1.1//EN" 
 "http://www.w3.org/Graphics/SVG/1.1/DTD/svg11.dtd"> 
<svg
  xmlns:svg="http://www.w3.org/2000/svg"
  xmlns="http://www.w3.org/2000/svg"
  xmlns:xlink="http://www.w3.org/1999/xlink"
  version="1.1"
  width="419.989000mm" height="297.002200mm" viewBox="0.000000 0.000000 419.989000 297.002200">
<title>SVG Image created as philoctetes-User_Comments.svg date 2025/08/09 21:57:46 </title>
  <desc>Image generated by PCBNEW </desc>
<g style="fill:#000000; fill-opacity:1.000000;stroke:#000000; stroke-opacity:1.000000;
stroke-linecap:round; stroke-linejoin:round;"
 transform="translate(0 0) scale(1 1)">
</g>
<g style="fill:none; 
stroke:#000000; stroke-width:0.100000; stroke-opacity:1; 
stroke-linecap:round; stroke-linejoin:round;">
<path d="M227.721000 25.900000
L227.721000 178.950000
" />
</g>
<g style="fill:none; 
stroke:#000000; stroke-width:0.150000; stroke-opacity:1; 
stroke-linecap:round; stroke-linejoin:round;">
<text x="252.585331" y="58.697500"
textLength="3.250000" font-size="1.333333" lengthAdjust="spacingAndGlyphs"
text-anchor="middle" opacity="0" stroke-opacity="0">USB</text>
<g class="stroked-text"><desc>USB</desc>
<path d="M251.323426 57.567319
L251.323426 58.376842
" />
<path d="M251.323426 58.376842
L251.371045 58.472080
" />
<path d="M251.371045 58.472080
L251.418664 58.519700
" />
<path d="M251.418664 58.519700
L251.513902 58.567319
" />
<path d="M251.513902 58.567319
L251.704378 58.567319
" />
<path d="M251.704378 58.567319
L251.799616 58.519700
" />
<path d="M251.799616 58.519700
L251.847235 58.472080
" />
<path d="M251.847235 58.472080
L251.894854 58.376842
" />
<path d="M251.894854 58.376842
L251.894854 57.567319
" />
<path d="M252.323426 58.519700
L252.466283 58.567319
" />
<path d="M252.466283 58.567319
L252.704378 58.567319
" />
<path d="M252.704378 58.567319
L252.799616 58.519700
" />
<path d="M252.799616 58.519700
L252.847235 58.472080
" />
<path d="M252.847235 58.472080
L252.894854 58.376842
" />
<path d="M252.894854 58.376842
L252.894854 58.281604
" />
<path d="M252.894854 58.281604
L252.847235 58.186366
" />
<path d="M252.847235 58.186366
L252.799616 58.138747
" />
<path d="M252.799616 58.138747
L252.704378 58.091128
" />
<path d="M252.704378 58.091128
L252.513902 58.043509
" />
<path d="M252.513902 58.043509
L252.418664 57.995890
" />
<path d="M252.418664 57.995890
L252.371045 57.948271
" />
<path d="M252.371045 57.948271
L252.323426 57.853033
" />
<path d="M252.323426 57.853033
L252.323426 57.757795
" />
<path d="M252.323426 57.757795
L252.371045 57.662557
" />
<path d="M252.371045 57.662557
L252.418664 57.614938
" />
<path d="M252.418664 57.614938
L252.513902 57.567319
" />
<path d="M252.513902 57.567319
L252.751997 57.567319
" />
<path d="M252.751997 57.567319
L252.894854 57.614938
" />
<path d="M253.656759 58.043509
L253.799616 58.091128
" />
<path d="M253.799616 58.091128
L253.847235 58.138747
" />
<path d="M253.847235 58.138747
L253.894854 58.233985
" />
<path d="M253.894854 58.233985
L253.894854 58.376842
" />
<path d="M253.894854 58.376842
L253.847235 58.472080
" />
<path d="M253.847235 58.472080
L253.799616 58.519700
" />
<path d="M253.799616 58.519700
L253.704378 58.567319
" />
<path d="M253.704378 58.567319
L253.323426 58.567319
" />
<path d="M253.323426 58.567319
L253.323426 57.567319
" />
<path d="M253.323426 57.567319
L253.656759 57.567319
" />
<path d="M253.656759 57.567319
L253.751997 57.614938
" />
<path d="M253.751997 57.614938
L253.799616 57.662557
" />
<path d="M253.799616 57.662557
L253.847235 57.757795
" />
<path d="M253.847235 57.757795
L253.847235 57.853033
" />
<path d="M253.847235 57.853033
L253.799616 57.948271
" />
<path d="M253.799616 57.948271
L253.751997 57.995890
" />
<path d="M253.751997 57.995890
L253.656759 58.043509
" />
<path d="M253.656759 58.043509
L253.323426 58.043509
" />
</g><text x="202.820000" y="58.510000"
textLength="3.250000" font-size="1.333333" lengthAdjust="spacingAndGlyphs"
text-anchor="middle" opacity="0" stroke-opacity="0">USB</text>
<g class="stroked-text"><desc>USB</desc>
<path d="M201.558095 57.379819
L201.558095 58.189342
" />
<path d="M201.558095 58.189342
L201.605714 58.284580
" />
<path d="M201.605714 58.284580
L201.653333 58.332200
" />
<path d="M201.653333 58.332200
L201.748571 58.379819
" />
<path d="M201.748571 58.379819
L201.939047 58.379819
" />
<path d="M201.939047 58.379819
L202.034285 58.332200
" />
<path d="M202.034285 58.332200
L202.081904 58.284580
" />
<path d="M202.081904 58.284580
L202.129523 58.189342
" />
<path d="M202.129523 58.189342
L202.129523 57.379819
" />
<path d="M202.558095 58.332200
L202.700952 58.379819
" />
<path d="M202.700952 58.379819
L202.939047 58.379819
" />
<path d="M202.939047 58.379819
L203.034285 58.332200
" />
<path d="M203.034285 58.332200
L203.081904 58.284580
" />
<path d="M203.081904 58.284580
L203.129523 58.189342
" />
<path d="M203.129523 58.189342
L203.129523 58.094104
" />
<path d="M203.129523 58.094104
L203.081904 57.998866
" />
<path d="M203.081904 57.998866
L203.034285 57.951247
" />
<path d="M203.034285 57.951247
L202.939047 57.903628
" />
<path d="M202.939047 57.903628
L202.748571 57.856009
" />
<path d="M202.748571 57.856009
L202.653333 57.808390
" />
<path d="M202.653333 57.808390
L202.605714 57.760771
" />
<path d="M202.605714 57.760771
L202.558095 57.665533
" />
<path d="M202.558095 57.665533
L202.558095 57.570295
" />
<path d="M202.558095 57.570295
L202.605714 57.475057
" />
<path d="M202.605714 57.475057
L202.653333 57.427438
" />
<path d="M202.653333 57.427438
L202.748571 57.379819
" />
<path d="M202.748571 57.379819
L202.986666 57.379819
" />
<path d="M202.986666 57.379819
L203.129523 57.427438
" />
<path d="M203.891428 57.856009
L204.034285 57.903628
" />
<path d="M204.034285 57.903628
L204.081904 57.951247
" />
<path d="M204.081904 57.951247
L204.129523 58.046485
" />
<path d="M204.129523 58.046485
L204.129523 58.189342
" />
<path d="M204.129523 58.189342
L204.081904 58.284580
" />
<path d="M204.081904 58.284580
L204.034285 58.332200
" />
<path d="M204.034285 58.332200
L203.939047 58.379819
" />
<path d="M203.939047 58.379819
L203.558095 58.379819
" />
<path d="M203.558095 58.379819
L203.558095 57.379819
" />
<path d="M203.558095 57.379819
L203.891428 57.379819
" />
<path d="M203.891428 57.379819
L203.986666 57.427438
" />
<path d="M203.986666 57.427438
L204.034285 57.475057
" />
<path d="M204.034285 57.475057
L204.081904 57.570295
" />
<path d="M204.081904 57.570295
L204.081904 57.665533
" />
<path d="M204.081904 57.665533
L204.034285 57.760771
" />
<path d="M204.034285 57.760771
L203.986666 57.808390
" />
<path d="M203.986666 57.808390
L203.891428 57.856009
" />
<path d="M203.891428 57.856009
L203.558095 57.856009
" />
</g></g>
<g style="fill:none; 
stroke:#000000; stroke-width:0.120000; stroke-opacity:1; 
stroke-linecap:round; stroke-linejoin:round;">
<path d="M273.902331 79.039000
L273.902331 81.839000
" />
<path d="M273.902331 81.839000
L277.102331 81.839000
" />
<path d="M277.102331 79.039000
L273.902331 79.039000
" />
<path d="M277.102331 81.839000
L277.102331 79.039000
" />
<path d="M138.300000 70.000000
L138.300000 72.800000
" />
<path d="M138.300000 72.800000
L141.500000 72.800000
" />
<path d="M141.500000 70.000000
L138.300000 70.000000
" />
<path d="M141.500000 72.800000
L141.500000 70.000000
" />
<path d="M333.299311 101.775796
L336.490261 102.016285
" />
<path d="M333.509739 98.983715
L333.299311 101.775796
" />
<path d="M336.490261 102.016285
L336.700689 99.224204
" />
<path d="M336.700689 99.224204
L333.509739 98.983715
" />
<path d="M79.192633 117.630436
L79.650428 120.392758
" />
<path d="M79.650428 120.392758
L82.807367 119.869564
" />
<path d="M82.349572 117.107242
L79.192633 117.630436
" />
<path d="M82.807367 119.869564
L82.349572 117.107242
" />
<path d="M73.049570 80.037264
L73.507365 82.799586
" />
<path d="M73.507365 82.799586
L76.664304 82.276392
" />
<path d="M76.206509 79.514070
L73.049570 80.037264
" />
<path d="M76.664304 82.276392
L76.206509 79.514070
" />
<path d="M313.650000 92.600000
L313.650000 95.400000
" />
<path d="M313.650000 95.400000
L316.850000 95.400000
" />
<path d="M316.850000 92.600000
L313.650000 92.600000
" />
<path d="M316.850000 95.400000
L316.850000 92.600000
" />
<path d="M287.100331 127.122000
L287.100331 129.922000
" />
<path d="M287.100331 129.922000
L290.300331 129.922000
" />
<path d="M290.300331 127.122000
L287.100331 127.122000
" />
<path d="M290.300331 129.922000
L290.300331 127.122000
" />
<path d="M105.771000 79.800000
L105.771000 82.600000
" />
<path d="M105.771000 82.600000
L108.971000 82.600000
" />
<path d="M108.971000 79.800000
L105.771000 79.800000
" />
<path d="M108.971000 82.600000
L108.971000 79.800000
" />
<path d="M91.942633 76.880436
L92.400428 79.642758
" />
<path d="M92.400428 79.642758
L95.557367 79.119564
" />
<path d="M95.099572 76.357242
L91.942633 76.880436
" />
<path d="M95.557367 79.119564
L95.099572 76.357242
" />
<path d="M314.024331 55.145000
L314.024331 57.945000
" />
<path d="M314.024331 57.945000
L317.224331 57.945000
" />
<path d="M317.224331 55.145000
L314.024331 55.145000
" />
<path d="M317.224331 57.945000
L317.224331 55.145000
" />
<path d="M165.207000 126.971000
L165.207000 129.771000
" />
<path d="M165.207000 129.771000
L168.407000 129.771000
" />
<path d="M168.407000 126.971000
L165.207000 126.971000
" />
<path d="M168.407000 129.771000
L168.407000 126.971000
" />
<path d="M293.200000 81.850000
L293.200000 84.650000
" />
<path d="M293.200000 84.650000
L296.400000 84.650000
" />
<path d="M296.400000 81.850000
L293.200000 81.850000
" />
<path d="M296.400000 84.650000
L296.400000 81.850000
" />
<path d="M212.331833 143.179602
L215.038460 144.886696
" />
<path d="M213.825540 140.811304
L212.331833 143.179602
" />
<path d="M215.038460 144.886696
L216.532167 142.518398
" />
<path d="M216.532167 142.518398
L213.825540 140.811304
" />
<path d="M138.300000 73.000000
L138.300000 75.800000
" />
<path d="M138.300000 75.800000
L141.500000 75.800000
" />
<path d="M141.500000 73.000000
L138.300000 73.000000
" />
<path d="M141.500000 75.800000
L141.500000 73.000000
" />
<path d="M116.049311 61.224204
L116.259739 64.016285
" />
<path d="M116.259739 64.016285
L119.450689 63.775796
" />
<path d="M119.240261 60.983715
L116.049311 61.224204
" />
<path d="M119.450689 63.775796
L119.240261 60.983715
" />
<path d="M313.770331 73.232000
L313.770331 76.032000
" />
<path d="M313.770331 76.032000
L316.970331 76.032000
" />
<path d="M316.970331 73.232000
L313.770331 73.232000
" />
<path d="M316.970331 76.032000
L316.970331 73.232000
" />
<path d="M178.400000 79.100000
L178.400000 81.900000
" />
<path d="M178.400000 81.900000
L181.600000 81.900000
" />
<path d="M181.600000 79.100000
L178.400000 79.100000
" />
<path d="M181.600000 81.900000
L181.600000 79.100000
" />
<path d="M95.192633 95.630436
L95.650428 98.392758
" />
<path d="M95.650428 98.392758
L98.807367 97.869564
" />
<path d="M98.349572 95.107242
L95.192633 95.630436
" />
<path d="M98.807367 97.869564
L98.349572 95.107242
" />
<path d="M313.748530 70.308797
L313.748530 73.108797
" />
<path d="M313.748530 73.108797
L316.948530 73.108797
" />
<path d="M316.948530 70.308797
L313.748530 70.308797
" />
<path d="M316.948530 73.108797
L316.948530 70.308797
" />
</g>
<g style="fill:none; 
stroke:#000000; stroke-width:0.150000; stroke-opacity:1; 
stroke-linecap:round; stroke-linejoin:round;">
<circle cx="65.000000" cy="84.800000" r="2.800000" /> 
</g>
<g style="fill:none; 
stroke:#000000; stroke-width:0.120000; stroke-opacity:1; 
stroke-linecap:round; stroke-linejoin:round;">
<path d="M119.900000 115.000000
L119.900000 117.800000
" />
<path d="M119.900000 117.800000
L123.100000 117.800000
" />
<path d="M123.100000 115.000000
L119.900000 115.000000
" />
<path d="M123.100000 117.800000
L123.100000 115.000000
" />
<path d="M292.900000 62.850000
L292.900000 65.650000
" />
<path d="M292.900000 65.650000
L296.100000 65.650000
" />
<path d="M296.100000 62.850000
L292.900000 62.850000
" />
<path d="M296.100000 65.650000
L296.100000 62.850000
" />
<path style="fill:none; 
stroke:#000000; stroke-width:0.100000; stroke-opacity:1; 
stroke-linecap:round; stroke-linejoin:round;fill:none"
d="M 249.035331,55.597500
256.135331,55.597500
256.135331,60.697500
249.035331,60.697500
Z" /> 
<path style="fill:none; 
stroke:#000000; stroke-width:0.200000; stroke-opacity:1; 
stroke-linecap:round; stroke-linejoin:round;fill:none"
d="M 261.475331,57.117500
243.695331,57.117500
243.695331,90.137500
261.475331,90.137500
Z" /> 
</g>
<g style="fill:none; 
stroke:#000000; stroke-width:0.120000; stroke-opacity:1; 
stroke-linecap:round; stroke-linejoin:round;">
<path d="M262.931306 130.020294
L263.613902 132.735816
" />
<path d="M263.613902 132.735816
L266.717356 131.955706
" />
<path d="M266.034760 129.240184
L262.931306 130.020294
" />
<path d="M266.717356 131.955706
L266.034760 129.240184
" />
<path d="M353.692633 116.921852
L356.849572 117.445046
" />
<path d="M354.150428 114.159530
L353.692633 116.921852
" />
<path d="M356.849572 117.445046
L357.307367 114.682724
" />
<path d="M357.307367 114.682724
L354.150428 114.159530
" />
<path d="M159.111000 100.600000
L159.111000 103.400000
" />
<path d="M159.111000 103.400000
L162.311000 103.400000
" />
<path d="M162.311000 100.600000
L159.111000 100.600000
" />
<path d="M162.311000 103.400000
L162.311000 100.600000
" />
<path d="M375.942633 101.119564
L379.099572 101.642758
" />
<path d="M376.400428 98.357242
L375.942633 101.119564
" />
<path d="M379.099572 101.642758
L379.557367 98.880436
" />
<path d="M379.557367 98.880436
L376.400428 98.357242
" />
</g>
<g style="fill:none; 
stroke:#000000; stroke-width:0.150000; stroke-opacity:1; 
stroke-linecap:round; stroke-linejoin:round;">
<circle cx="115.200000" cy="120.600000" r="2.800000" /> 
<circle cx="170.500000" cy="59.200000" r="2.800000" /> 
</g>
<g style="fill:none; 
stroke:#000000; stroke-width:0.120000; stroke-opacity:1; 
stroke-linecap:round; stroke-linejoin:round;">
<path d="M356.692633 98.103564
L359.849572 98.626758
" />
<path d="M357.150428 95.341242
L356.692633 98.103564
" />
<path d="M359.849572 98.626758
L360.307367 95.864436
" />
<path d="M360.307367 95.864436
L357.150428 95.341242
" />
</g>
<g style="fill:none; 
stroke:#000000; stroke-width:0.150000; stroke-opacity:1; 
stroke-linecap:round; stroke-linejoin:round;">
<circle cx="296.750000" cy="120.000000" r="2.800000" /> 
</g>
<g style="fill:none; 
stroke:#000000; stroke-width:0.120000; stroke-opacity:1; 
stroke-linecap:round; stroke-linejoin:round;">
<path d="M188.789975 131.751706
L191.893429 132.531816
" />
<path d="M189.472571 129.036184
L188.789975 131.751706
" />
<path d="M191.893429 132.531816
L192.576025 129.816294
" />
<path d="M192.576025 129.816294
L189.472571 129.036184
" />
<path d="M359.692633 79.369564
L362.849572 79.892758
" />
<path d="M360.150428 76.607242
L359.692633 79.369564
" />
<path d="M362.849572 79.892758
L363.307367 77.130436
" />
<path d="M363.307367 77.130436
L360.150428 76.607242
" />
<path d="M332.400000 115.100000
L332.400000 117.900000
" />
<path d="M332.400000 117.900000
L335.600000 117.900000
" />
<path d="M335.600000 115.100000
L332.400000 115.100000
" />
<path d="M335.600000 117.900000
L335.600000 115.100000
" />
<path d="M273.900000 116.850000
L273.900000 119.650000
" />
<path d="M273.900000 119.650000
L277.100000 119.650000
" />
<path d="M277.100000 116.850000
L273.900000 116.850000
" />
<path d="M277.100000 119.650000
L277.100000 116.850000
" />
<path d="M138.400000 108.600000
L138.400000 111.400000
" />
<path d="M138.400000 111.400000
L141.600000 111.400000
" />
<path d="M141.600000 108.600000
L138.400000 108.600000
" />
<path d="M141.600000 111.400000
L141.600000 108.600000
" />
<path d="M313.900000 108.789000
L313.900000 111.589000
" />
<path d="M313.900000 111.589000
L317.100000 111.589000
" />
<path d="M317.100000 108.789000
L313.900000 108.789000
" />
<path d="M317.100000 111.589000
L317.100000 108.789000
" />
<path d="M76.442633 98.880436
L76.900428 101.642758
" />
<path d="M76.900428 101.642758
L80.057367 101.119564
" />
<path d="M79.599572 98.357242
L76.442633 98.880436
" />
<path d="M80.057367 101.119564
L79.599572 98.357242
" />
<path d="M118.812887 99.163723
L119.023315 101.955804
" />
<path d="M119.023315 101.955804
L122.214265 101.715315
" />
<path d="M122.003837 98.923234
L118.812887 99.163723
" />
<path d="M122.214265 101.715315
L122.003837 98.923234
" />
</g>
<g style="fill:none; 
stroke:#000000; stroke-width:0.150000; stroke-opacity:1; 
stroke-linecap:round; stroke-linejoin:round;">
<circle cx="158.700000" cy="119.800000" r="2.800000" /> 
</g>
<g style="fill:none; 
stroke:#000000; stroke-width:0.120000; stroke-opacity:1; 
stroke-linecap:round; stroke-linejoin:round;">
<path d="M159.238000 62.600000
L159.238000 65.400000
" />
<path d="M159.238000 65.400000
L162.438000 65.400000
" />
<path d="M162.438000 62.600000
L159.238000 62.600000
" />
<path d="M162.438000 65.400000
L162.438000 62.600000
" />
</g>
<g style="fill:none; 
stroke:#000000; stroke-width:0.150000; stroke-opacity:1; 
stroke-linecap:round; stroke-linejoin:round;">
<circle cx="202.400000" cy="134.500000" r="2.800000" /> 
</g>
<g style="fill:none; 
stroke:#000000; stroke-width:0.120000; stroke-opacity:1; 
stroke-linecap:round; stroke-linejoin:round;">
<path d="M158.900000 81.500000
L158.900000 84.300000
" />
<path d="M158.900000 84.300000
L162.100000 84.300000
" />
<path d="M162.100000 81.500000
L158.900000 81.500000
" />
<path d="M162.100000 84.300000
L162.100000 81.500000
" />
<path d="M238.975164 142.919398
L240.468871 145.287696
" />
<path d="M240.468871 145.287696
L243.175498 143.580602
" />
<path d="M241.681791 141.212304
L238.975164 142.919398
" />
<path d="M243.175498 143.580602
L241.681791 141.212304
" />
<path d="M98.442633 114.380436
L98.900428 117.142758
" />
<path d="M98.900428 117.142758
L102.057367 116.619564
" />
<path d="M101.599572 113.857242
L98.442633 114.380436
" />
<path d="M102.057367 116.619564
L101.599572 113.857242
" />
<path d="M117.312887 80.163723
L117.523315 82.955804
" />
<path d="M117.523315 82.955804
L120.714265 82.715315
" />
<path d="M120.503837 79.923234
L117.312887 80.163723
" />
<path d="M120.714265 82.715315
L120.503837 79.923234
" />
<path d="M273.900000 100.850000
L273.900000 103.650000
" />
<path d="M273.900000 103.650000
L277.100000 103.650000
" />
<path d="M277.100000 100.850000
L273.900000 100.850000
" />
<path d="M277.100000 103.650000
L277.100000 100.850000
" />
<path d="M378.692633 82.619564
L381.849572 83.142758
" />
<path d="M379.150428 79.857242
L378.692633 82.619564
" />
<path d="M381.849572 83.142758
L382.307367 80.380436
" />
<path d="M382.307367 80.380436
L379.150428 79.857242
" />
</g>
<g style="fill:none; 
stroke:#000000; stroke-width:0.150000; stroke-opacity:1; 
stroke-linecap:round; stroke-linejoin:round;">
<circle cx="106.200000" cy="72.900000" r="2.800000" /> 
</g>
<g style="fill:none; 
stroke:#000000; stroke-width:0.120000; stroke-opacity:1; 
stroke-linecap:round; stroke-linejoin:round;">
<path d="M334.535735 82.965315
L337.726685 83.205804
" />
<path d="M334.746163 80.173234
L334.535735 82.965315
" />
<path d="M337.726685 83.205804
L337.937113 80.413723
" />
<path d="M337.937113 80.413723
L334.746163 80.173234
" />
<path d="M178.415000 81.850000
L178.415000 84.650000
" />
<path d="M178.415000 84.650000
L181.615000 84.650000
" />
<path d="M181.615000 81.850000
L178.415000 81.850000
" />
<path d="M181.615000 84.650000
L181.615000 81.850000
" />
<path d="M138.410000 54.350000
L138.410000 57.150000
" />
<path d="M138.410000 57.150000
L141.610000 57.150000
" />
<path d="M141.610000 54.350000
L138.410000 54.350000
" />
<path d="M141.610000 57.150000
L141.610000 54.350000
" />
</g>
<g style="fill:none; 
stroke:#000000; stroke-width:0.150000; stroke-opacity:1; 
stroke-linecap:round; stroke-linejoin:round;">
<circle cx="253.026600" cy="134.704000" r="2.800000" /> 
</g>
<g style="fill:none; 
stroke:#000000; stroke-width:0.120000; stroke-opacity:1; 
stroke-linecap:round; stroke-linejoin:round;">
<path d="M178.450000 62.600000
L178.450000 65.400000
" />
<path d="M178.450000 65.400000
L181.650000 65.400000
" />
<path d="M181.650000 62.600000
L178.450000 62.600000
" />
<path d="M181.650000 65.400000
L181.650000 62.600000
" />
</g>
<g style="fill:none; 
stroke:#000000; stroke-width:0.150000; stroke-opacity:1; 
stroke-linecap:round; stroke-linejoin:round;">
<circle cx="349.250000" cy="73.000000" r="2.800000" /> 
</g>
<g style="fill:none; 
stroke:#000000; stroke-width:0.120000; stroke-opacity:1; 
stroke-linecap:round; stroke-linejoin:round;">
<path d="M292.900000 100.850000
L292.900000 103.650000
" />
<path d="M292.900000 103.650000
L296.100000 103.650000
" />
<path d="M296.100000 100.850000
L292.900000 100.850000
" />
<path d="M296.100000 103.650000
L296.100000 100.850000
" />
</g>
<g style="fill:none; 
stroke:#000000; stroke-width:0.150000; stroke-opacity:1; 
stroke-linecap:round; stroke-linejoin:round;">
<circle cx="285.000000" cy="59.400000" r="2.800000" /> 
</g>
<g style="fill:none; 
stroke:#000000; stroke-width:0.120000; stroke-opacity:1; 
stroke-linecap:round; stroke-linejoin:round;">
<path d="M178.400000 100.600000
L178.400000 103.400000
" />
<path d="M178.400000 103.400000
L181.600000 103.400000
" />
<path d="M181.600000 100.600000
L178.400000 100.600000
" />
<path d="M181.600000 103.400000
L181.600000 100.600000
" />
</g>
<g style="fill:none; 
stroke:#000000; stroke-width:0.150000; stroke-opacity:1; 
stroke-linecap:round; stroke-linejoin:round;">
<circle cx="390.500000" cy="85.000000" r="2.800000" /> 
<circle cx="340.250000" cy="120.750000" r="2.800000" /> 
</g>
<g style="fill:none; 
stroke:#000000; stroke-width:0.120000; stroke-opacity:1; 
stroke-linecap:round; stroke-linejoin:round;">
<path d="M273.902331 81.850000
L273.902331 84.650000
" />
<path d="M273.902331 84.650000
L277.102331 84.650000
" />
<path d="M277.102331 81.850000
L273.902331 81.850000
" />
<path d="M277.102331 84.650000
L277.102331 81.850000
" />
<path d="M138.664000 90.808000
L138.664000 93.608000
" />
<path d="M138.664000 93.608000
L141.864000 93.608000
" />
<path d="M141.864000 90.808000
L138.664000 90.808000
" />
<path d="M141.864000 93.608000
L141.864000 90.808000
" />
<path d="M178.350000 116.700000
L178.350000 119.500000
" />
<path d="M178.350000 119.500000
L181.550000 119.500000
" />
<path d="M181.550000 116.700000
L178.350000 116.700000
" />
<path d="M181.550000 119.500000
L181.550000 116.700000
" />
<path d="M335.799311 64.084020
L338.990261 64.324509
" />
<path d="M336.009739 61.291939
L335.799311 64.084020
" />
<path d="M338.990261 64.324509
L339.200689 61.532428
" />
<path d="M339.200689 61.532428
L336.009739 61.291939
" />
<path style="fill:none; 
stroke:#000000; stroke-width:0.100000; stroke-opacity:1; 
stroke-linecap:round; stroke-linejoin:round;fill:none"
d="M 199.270000,55.410000
206.370000,55.410000
206.370000,60.510000
199.270000,60.510000
Z" /> 
<path style="fill:none; 
stroke:#000000; stroke-width:0.200000; stroke-opacity:1; 
stroke-linecap:round; stroke-linejoin:round;fill:none"
d="M 211.710000,56.930000
193.930000,56.930000
193.930000,89.950000
211.710000,89.950000
Z" /> 
</g>
<g style="fill:none; 
stroke:#000000; stroke-width:0.120000; stroke-opacity:1; 
stroke-linecap:round; stroke-linejoin:round;">
<path d="M372.835696 119.776392
L375.992635 120.299586
" />
<path d="M373.293491 117.014070
L372.835696 119.776392
" />
<path d="M375.992635 120.299586
L376.450430 117.537264
" />
<path d="M376.450430 117.537264
L373.293491 117.014070
" />
<path d="M346.536331 79.963000
L346.536331 82.763000
" />
<path d="M346.536331 82.763000
L349.736331 82.763000
" />
<path d="M349.736331 79.963000
L346.536331 79.963000
" />
<path d="M349.736331 82.763000
L349.736331 79.963000
" />
<path d="M273.850000 62.850000
L273.850000 65.650000
" />
<path d="M273.850000 65.650000
L277.050000 65.650000
" />
<path d="M277.050000 62.850000
L273.850000 62.850000
" />
<path d="M277.050000 65.650000
L277.050000 62.850000
" />
</g>
<g style="fill:none; 
stroke:#000000; stroke-width:0.050000; stroke-opacity:1; 
stroke-linecap:round; stroke-linejoin:round;">
<path d="M239.800000 135.870000
L229.351638 143.800000
" />
<path d="M329.770000 50.000000
L329.770000 57.500000
" />
<path d="M327.000000 50.000000
L329.770000 50.000000
" />
<path d="M279.300000 142.800000
L299.900000 142.800000
" />
<path d="M140.100000 139.300000
L162.200000 161.400000
" />
<path d="M321.600000 130.400000
L338.200000 130.200000
" />
<path d="M123.200000 128.600000
L123.300000 128.600000
" />
<path d="M59.700000 42.500000
L395.900000 42.500000
" />
<path d="M162.200000 161.400000
L297.400000 161.400000
" />
<path d="M156.000000 48.400000
L59.700000 48.300000
" />
<path d="M128.300000 128.600000
L133.700000 128.600000
" />
<path d="M357.300000 68.200000
L346.600000 57.500000
" />
<path d="M123.300000 138.800000
L123.300000 139.300000
" />
<path d="M214.700000 132.500000
L214.700000 124.000000
" />
<path d="M396.000000 164.400000
L396.000000 161.400000
" />
<path d="M239.850000 160.340000
L264.100000 146.600000
" />
<path d="M150.200000 58.300000
L150.200000 50.400000
" />
<path d="M305.000000 55.100000
L263.200000 55.100000
" />
<path d="M150.200000 50.400000
L128.300000 50.400000
" />
<path d="M128.300000 129.000000
L128.300000 128.600000
" />
<path d="M395.600000 78.600000
L357.300000 68.200000
" />
<path d="M59.700000 164.600000
L396.000000 164.400000
" />
<path d="M128.300000 50.400000
L128.300000 60.600000
" />
<path d="M264.100000 146.600000
L279.300000 142.800000
" />
<path d="M59.700000 139.300000
L123.200000 139.300000
" />
<path d="M117.100000 128.600000
L123.200000 128.600000
" />
<path d="M299.900000 142.800000
L321.600000 130.400000
" />
<path d="M133.700000 128.600000
L155.400000 141.000000
" />
<path d="M59.700000 161.300000
L59.700000 164.600000
" />
<path d="M155.400000 141.000000
L176.500000 141.000000
" />
<path d="M75.000000 137.300000
L117.100000 128.600000
" />
<path d="M305.000000 55.100000
L305.000000 50.000000
" />
<path d="M105.600000 61.400000
L97.800000 68.700000
" />
<path d="M128.300000 60.600000
L105.600000 61.400000
" />
<path d="M97.800000 68.700000
L59.700000 78.900000
" />
<path d="M123.300000 128.600000
L123.300000 138.800000
" />
<path d="M265.800000 48.400000
L267.300000 48.400000
" />
<path d="M215.700000 159.400000
L226.900000 141.900000
" />
<path d="M59.700000 78.900000
L75.000000 137.300000
" />
<path d="M128.300000 139.300000
L140.100000 139.300000
" />
<path d="M59.700000 42.500000
L59.700000 48.300000
" />
<path d="M297.800000 48.400000
L302.200000 48.400000
" />
<path d="M123.300000 139.300000
L123.200000 139.300000
" />
<path d="M380.400000 137.200000
L395.600000 78.600000
" />
<path d="M196.400000 48.400000
L200.500000 48.400000
" />
<path d="M226.900000 141.900000
L214.700000 132.500000
" />
<path d="M395.900000 42.500000
L395.900000 48.400000
" />
<path d="M239.800000 55.100000
L239.800000 135.870000
" />
<path d="M191.300000 58.300000
L191.400000 58.300000
" />
<path d="M191.400000 48.400000
L161.100000 48.400000
" />
<path d="M260.800000 48.400000
L200.500000 48.400000
" />
<path d="M395.900000 48.400000
L302.200000 48.400000
" />
<path d="M176.500000 141.000000
L191.100000 144.900000
" />
<path d="M327.000000 50.000000
L305.000000 50.000000
" />
<path d="M338.200000 130.200000
L380.400000 137.200000
" />
<path d="M239.850000 160.340000
L229.351638 143.800000
" />
<path d="M263.200000 55.100000
L239.800000 55.100000
" />
<path d="M128.300000 129.000000
L128.300000 139.300000
" />
<path d="M191.100000 144.900000
L215.700000 159.400000
" />
<path d="M297.400000 161.400000
L328.100000 139.900000
" />
<path d="M292.800000 48.400000
L267.300000 48.400000
" />
<path d="M150.200000 58.300000
L156.000000 58.300000
" />
<path d="M346.600000 57.500000
L329.770000 57.500000
" />
<path d="M59.700000 139.300000
L59.700000 161.300000
" />
</g>
<g style="fill:none; 
stroke:#000000; stroke-width:0.120000; stroke-opacity:1; 
stroke-linecap:round; stroke-linejoin:round;">
<path d="M273.802331 78.939000
L273.802331 81.939000
" />
<path d="M273.802331 81.939000
L277.202331 81.939000
" />
<path d="M277.202331 78.939000
L273.802331 78.939000
" />
<path d="M277.202331 81.939000
L277.202331 78.939000
" />
<path d="M138.200000 69.900000
L138.200000 72.900000
" />
<path d="M138.200000 72.900000
L141.600000 72.900000
" />
<path d="M141.600000 69.900000
L138.200000 69.900000
" />
<path d="M141.600000 72.900000
L141.600000 69.900000
" />
<path d="M333.192078 101.867998
L336.582463 102.123518
" />
<path d="M333.417537 98.876482
L333.192078 101.867998
" />
<path d="M336.582463 102.123518
L336.807922 99.132002
" />
<path d="M336.807922 99.132002
L333.417537 98.876482
" />
<path d="M79.077629 117.548131
L79.568123 120.507762
" />
<path d="M79.568123 120.507762
L82.922371 119.951869
" />
<path d="M82.431877 116.992238
L79.077629 117.548131
" />
<path d="M82.922371 119.951869
L82.431877 116.992238
" />
<path d="M72.934566 79.954959
L73.425060 82.914590
" />
<path d="M73.425060 82.914590
L76.779308 82.358697
" />
<path d="M76.288814 79.399066
L72.934566 79.954959
" />
<path d="M76.779308 82.358697
L76.288814 79.399066
" />
<path d="M313.550000 92.500000
L313.550000 95.500000
" />
<path d="M313.550000 95.500000
L316.950000 95.500000
" />
<path d="M316.950000 92.500000
L313.550000 92.500000
" />
<path d="M316.950000 95.500000
L316.950000 92.500000
" />
<path d="M287.000331 127.022000
L287.000331 130.022000
" />
<path d="M287.000331 130.022000
L290.400331 130.022000
" />
<path d="M290.400331 127.022000
L287.000331 127.022000
" />
<path d="M290.400331 130.022000
L290.400331 127.022000
" />
<path d="M105.671000 79.700000
L105.671000 82.700000
" />
<path d="M105.671000 82.700000
L109.071000 82.700000
" />
<path d="M109.071000 79.700000
L105.671000 79.700000
" />
<path d="M109.071000 82.700000
L109.071000 79.700000
" />
<path d="M91.827629 76.798131
L92.318123 79.757762
" />
<path d="M92.318123 79.757762
L95.672371 79.201869
" />
<path d="M95.181877 76.242238
L91.827629 76.798131
" />
<path d="M95.672371 79.201869
L95.181877 76.242238
" />
<path d="M313.924331 55.045000
L313.924331 58.045000
" />
<path d="M313.924331 58.045000
L317.324331 58.045000
" />
<path d="M317.324331 55.045000
L313.924331 55.045000
" />
<path d="M317.324331 58.045000
L317.324331 55.045000
" />
<path d="M165.107000 126.871000
L165.107000 129.871000
" />
<path d="M165.107000 129.871000
L168.507000 129.871000
" />
<path d="M168.507000 126.871000
L165.107000 126.871000
" />
<path d="M168.507000 129.871000
L168.507000 126.871000
" />
<path style="fill:none; 
stroke:#000000; stroke-width:0.050000; stroke-opacity:1; 
stroke-linecap:round; stroke-linejoin:round;fill:none"
d="M 196.900000,63.200000
208.900000,63.200000
208.900000,100.200000
196.900000,100.200000
Z" /> 
</g>
<g style="fill:none; 
stroke:#000000; stroke-width:0.120000; stroke-opacity:1; 
stroke-linecap:round; stroke-linejoin:round;">
<path d="M293.100000 81.750000
L293.100000 84.750000
" />
<path d="M293.100000 84.750000
L296.500000 84.750000
" />
<path d="M296.500000 81.750000
L293.100000 81.750000
" />
<path d="M296.500000 84.750000
L296.500000 81.750000
" />
<path d="M212.193904 143.210838
L215.069695 145.024625
" />
<path d="M213.794305 140.673375
L212.193904 143.210838
" />
<path d="M215.069695 145.024625
L216.670096 142.487162
" />
<path d="M216.670096 142.487162
L213.794305 140.673375
" />
<path d="M138.200000 72.900000
L138.200000 75.900000
" />
<path d="M138.200000 75.900000
L141.600000 75.900000
" />
<path d="M141.600000 72.900000
L138.200000 72.900000
" />
<path d="M141.600000 75.900000
L141.600000 72.900000
" />
<path d="M115.942078 61.132002
L116.167537 64.123518
" />
<path d="M116.167537 64.123518
L119.557922 63.867998
" />
<path d="M119.332463 60.876482
L115.942078 61.132002
" />
<path d="M119.557922 63.867998
L119.332463 60.876482
" />
<path d="M313.670331 73.132000
L313.670331 76.132000
" />
<path d="M313.670331 76.132000
L317.070331 76.132000
" />
<path d="M317.070331 73.132000
L313.670331 73.132000
" />
<path d="M317.070331 76.132000
L317.070331 73.132000
" />
<path d="M178.300000 79.000000
L178.300000 82.000000
" />
<path d="M178.300000 82.000000
L181.700000 82.000000
" />
<path d="M181.700000 79.000000
L178.300000 79.000000
" />
<path d="M181.700000 82.000000
L181.700000 79.000000
" />
<path style="fill:none; 
stroke:#000000; stroke-width:0.050000; stroke-opacity:1; 
stroke-linecap:round; stroke-linejoin:round;fill:none"
d="M 246.500000,63.000000
258.500000,63.000000
258.500000,100.000000
246.500000,100.000000
Z" /> 
</g>
<g style="fill:none; 
stroke:#000000; stroke-width:0.120000; stroke-opacity:1; 
stroke-linecap:round; stroke-linejoin:round;">
<path d="M95.077629 95.548131
L95.568123 98.507762
" />
<path d="M95.568123 98.507762
L98.922371 97.951869
" />
<path d="M98.431877 94.992238
L95.077629 95.548131
" />
<path d="M98.922371 97.951869
L98.431877 94.992238
" />
<path d="M313.648530 70.208797
L313.648530 73.208797
" />
<path d="M313.648530 73.208797
L317.048530 73.208797
" />
<path d="M317.048530 70.208797
L313.648530 70.208797
" />
<path d="M317.048530 73.208797
L317.048530 70.208797
" />
<path d="M119.800000 114.900000
L119.800000 117.900000
" />
<path d="M119.800000 117.900000
L123.200000 117.900000
" />
<path d="M123.200000 114.900000
L119.800000 114.900000
" />
<path d="M123.200000 117.900000
L123.200000 114.900000
" />
<path d="M292.800000 62.750000
L292.800000 65.750000
" />
<path d="M292.800000 65.750000
L296.200000 65.750000
" />
<path d="M296.200000 62.750000
L292.800000 62.750000
" />
<path d="M296.200000 65.750000
L296.200000 62.750000
" />
<path d="M262.809944 129.947689
L263.541297 132.857178
" />
<path d="M263.541297 132.857178
L266.838718 132.028311
" />
<path d="M266.107365 129.118822
L262.809944 129.947689
" />
<path d="M266.838718 132.028311
L266.107365 129.118822
" />
<path d="M353.577629 117.004157
L356.931877 117.560050
" />
<path d="M354.068123 114.044526
L353.577629 117.004157
" />
<path d="M356.931877 117.560050
L357.422371 114.600419
" />
<path d="M357.422371 114.600419
L354.068123 114.044526
" />
<path d="M159.011000 100.500000
L159.011000 103.500000
" />
<path d="M159.011000 103.500000
L162.411000 103.500000
" />
<path d="M162.411000 100.500000
L159.011000 100.500000
" />
<path d="M162.411000 103.500000
L162.411000 100.500000
" />
<path d="M375.827629 101.201869
L379.181877 101.757762
" />
<path d="M376.318123 98.242238
L375.827629 101.201869
" />
<path d="M379.181877 101.757762
L379.672371 98.798131
" />
<path d="M379.672371 98.798131
L376.318123 98.242238
" />
<path d="M356.577629 98.185869
L359.931877 98.741762
" />
<path d="M357.068123 95.226238
L356.577629 98.185869
" />
<path d="M359.931877 98.741762
L360.422371 95.782131
" />
<path d="M360.422371 95.782131
L357.068123 95.226238
" />
<path d="M188.668613 131.824311
L191.966034 132.653178
" />
<path d="M189.399966 128.914822
L188.668613 131.824311
" />
<path d="M191.966034 132.653178
L192.697387 129.743689
" />
<path d="M192.697387 129.743689
L189.399966 128.914822
" />
<path d="M359.577629 79.451869
L362.931877 80.007762
" />
<path d="M360.068123 76.492238
L359.577629 79.451869
" />
<path d="M362.931877 80.007762
L363.422371 77.048131
" />
<path d="M363.422371 77.048131
L360.068123 76.492238
" />
<path d="M332.300000 115.000000
L332.300000 118.000000
" />
<path d="M332.300000 118.000000
L335.700000 118.000000
" />
<path d="M335.700000 115.000000
L332.300000 115.000000
" />
<path d="M335.700000 118.000000
L335.700000 115.000000
" />
<path d="M273.800000 116.750000
L273.800000 119.750000
" />
<path d="M273.800000 119.750000
L277.200000 119.750000
" />
<path d="M277.200000 116.750000
L273.800000 116.750000
" />
<path d="M277.200000 119.750000
L277.200000 116.750000
" />
<path d="M138.300000 108.500000
L138.300000 111.500000
" />
<path d="M138.300000 111.500000
L141.700000 111.500000
" />
<path d="M141.700000 108.500000
L138.300000 108.500000
" />
<path d="M141.700000 111.500000
L141.700000 108.500000
" />
<path d="M313.800000 108.689000
L313.800000 111.689000
" />
<path d="M313.800000 111.689000
L317.200000 111.689000
" />
<path d="M317.200000 108.689000
L313.800000 108.689000
" />
<path d="M317.200000 111.689000
L317.200000 108.689000
" />
<path d="M76.327629 98.798131
L76.818123 101.757762
" />
<path d="M76.818123 101.757762
L80.172371 101.201869
" />
<path d="M79.681877 98.242238
L76.327629 98.798131
" />
<path d="M80.172371 101.201869
L79.681877 98.242238
" />
<path d="M118.705654 99.071521
L118.931113 102.063037
" />
<path d="M118.931113 102.063037
L122.321498 101.807517
" />
<path d="M122.096039 98.816001
L118.705654 99.071521
" />
<path d="M122.321498 101.807517
L122.096039 98.816001
" />
<path d="M159.138000 62.500000
L159.138000 65.500000
" />
<path d="M159.138000 65.500000
L162.538000 65.500000
" />
<path d="M162.538000 62.500000
L159.138000 62.500000
" />
<path d="M162.538000 65.500000
L162.538000 62.500000
" />
<path d="M158.800000 81.400000
L158.800000 84.400000
" />
<path d="M158.800000 84.400000
L162.200000 84.400000
" />
<path d="M162.200000 81.400000
L158.800000 81.400000
" />
<path d="M162.200000 84.400000
L162.200000 81.400000
" />
<path d="M238.837235 142.888162
L240.437636 145.425625
" />
<path d="M240.437636 145.425625
L243.313427 143.611838
" />
<path d="M241.713026 141.074375
L238.837235 142.888162
" />
<path d="M243.313427 143.611838
L241.713026 141.074375
" />
<path d="M98.327629 114.298131
L98.818123 117.257762
" />
<path d="M98.818123 117.257762
L102.172371 116.701869
" />
<path d="M101.681877 113.742238
L98.327629 114.298131
" />
<path d="M102.172371 116.701869
L101.681877 113.742238
" />
<path d="M117.205654 80.071521
L117.431113 83.063037
" />
<path d="M117.431113 83.063037
L120.821498 82.807517
" />
<path d="M120.596039 79.816001
L117.205654 80.071521
" />
<path d="M120.821498 82.807517
L120.596039 79.816001
" />
<path d="M273.800000 100.750000
L273.800000 103.750000
" />
<path d="M273.800000 103.750000
L277.200000 103.750000
" />
<path d="M277.200000 100.750000
L273.800000 100.750000
" />
<path d="M277.200000 103.750000
L277.200000 100.750000
" />
<path d="M378.577629 82.701869
L381.931877 83.257762
" />
<path d="M379.068123 79.742238
L378.577629 82.701869
" />
<path d="M381.931877 83.257762
L382.422371 80.298131
" />
<path d="M382.422371 80.298131
L379.068123 79.742238
" />
<path d="M334.428502 83.057517
L337.818887 83.313037
" />
<path d="M334.653961 80.066001
L334.428502 83.057517
" />
<path d="M337.818887 83.313037
L338.044346 80.321521
" />
<path d="M338.044346 80.321521
L334.653961 80.066001
" />
<path d="M178.315000 81.750000
L178.315000 84.750000
" />
<path d="M178.315000 84.750000
L181.715000 84.750000
" />
<path d="M181.715000 81.750000
L178.315000 81.750000
" />
<path d="M181.715000 84.750000
L181.715000 81.750000
" />
<path d="M138.310000 54.250000
L138.310000 57.250000
" />
<path d="M138.310000 57.250000
L141.710000 57.250000
" />
<path d="M141.710000 54.250000
L138.310000 54.250000
" />
<path d="M141.710000 57.250000
L141.710000 54.250000
" />
<path d="M178.350000 62.500000
L178.350000 65.500000
" />
<path d="M178.350000 65.500000
L181.750000 65.500000
" />
<path d="M181.750000 62.500000
L178.350000 62.500000
" />
<path d="M181.750000 65.500000
L181.750000 62.500000
" />
<path d="M292.800000 100.750000
L292.800000 103.750000
" />
<path d="M292.800000 103.750000
L296.200000 103.750000
" />
<path d="M296.200000 100.750000
L292.800000 100.750000
" />
<path d="M296.200000 103.750000
L296.200000 100.750000
" />
<path d="M178.300000 100.500000
L178.300000 103.500000
" />
<path d="M178.300000 103.500000
L181.700000 103.500000
" />
<path d="M181.700000 100.500000
L178.300000 100.500000
" />
<path d="M181.700000 103.500000
L181.700000 100.500000
" />
<path d="M273.802331 81.750000
L273.802331 84.750000
" />
<path d="M273.802331 84.750000
L277.202331 84.750000
" />
<path d="M277.202331 81.750000
L273.802331 81.750000
" />
<path d="M277.202331 84.750000
L277.202331 81.750000
" />
<path d="M138.564000 90.708000
L138.564000 93.708000
" />
<path d="M138.564000 93.708000
L141.964000 93.708000
" />
<path d="M141.964000 90.708000
L138.564000 90.708000
" />
<path d="M141.964000 93.708000
L141.964000 90.708000
" />
<path d="M178.250000 116.600000
L178.250000 119.600000
" />
<path d="M178.250000 119.600000
L181.650000 119.600000
" />
<path d="M181.650000 116.600000
L178.250000 116.600000
" />
<path d="M181.650000 119.600000
L181.650000 116.600000
" />
<path d="M335.692078 64.176222
L339.082463 64.431742
" />
<path d="M335.917537 61.184706
L335.692078 64.176222
" />
<path d="M339.082463 64.431742
L339.307922 61.440226
" />
<path d="M339.307922 61.440226
L335.917537 61.184706
" />
<path d="M372.720692 119.858697
L376.074940 120.414590
" />
<path d="M373.211186 116.899066
L372.720692 119.858697
" />
<path d="M376.074940 120.414590
L376.565434 117.454959
" />
<path d="M376.565434 117.454959
L373.211186 116.899066
" />
<path d="M346.436331 79.863000
L346.436331 82.863000
" />
<path d="M346.436331 82.863000
L349.836331 82.863000
" />
<path d="M349.836331 79.863000
L346.436331 79.863000
" />
<path d="M349.836331 82.863000
L349.836331 79.863000
" />
<path d="M273.750000 62.750000
L273.750000 65.750000
" />
<path d="M273.750000 65.750000
L277.150000 65.750000
" />
<path d="M277.150000 62.750000
L273.750000 62.750000
" />
<path d="M277.150000 65.750000
L277.150000 62.750000
" />
</g>
<g style="fill:#000000; fill-opacity:1.000000; stroke:none;">
<circle cx="330.265554" cy="86.000000" r="0.175000" /> 
</g>
<g style="fill:#000000; fill-opacity:1.000000; stroke:none;">
<circle cx="330.478559" cy="89.826830" r="0.175000" /> 
</g>
<g style="fill:#000000; fill-opacity:1.000000; stroke:none;">
<circle cx="335.750000" cy="86.413340" r="0.175000" /> 
</g>
<g style="fill:#000000; fill-opacity:1.000000; stroke:none;">
<circle cx="335.306599" cy="92.296655" r="0.175000" /> 
</g>
<g style="fill:#000000; fill-opacity:1.000000; stroke:none;">
<circle cx="341.122897" cy="81.653668" r="0.175000" /> 
</g>
<g style="fill:#000000; fill-opacity:1.000000; stroke:none;">
<circle cx="341.234446" cy="86.826680" r="0.175000" /> 
</g>
<g style="fill:#000000; fill-opacity:1.000000; stroke:none;">
<circle cx="81.335287" cy="84.998950" r="0.175000" /> 
</g>
<g style="fill:#000000; fill-opacity:1.000000; stroke:none;">
<circle cx="80.000000" cy="80.000000" r="0.175000" /> 
</g>
<g style="fill:#000000; fill-opacity:1.000000; stroke:none;">
<circle cx="76.873936" cy="91.718797" r="0.175000" /> 
</g>
<g style="fill:#000000; fill-opacity:1.000000; stroke:none;">
<circle cx="75.909297" cy="85.898190" r="0.175000" /> 
</g>
<g style="fill:#000000; fill-opacity:1.000000; stroke:none;">
<circle cx="71.597872" cy="90.464547" r="0.175000" /> 
</g>
<g style="fill:#000000; fill-opacity:1.000000; stroke:none;">
<circle cx="70.483307" cy="86.797430" r="0.175000" /> 
</g>
<g style="fill:#000000; fill-opacity:1.000000; stroke:none;">
<circle cx="342.695260" cy="67.917273" r="0.175000" /> 
</g>
<g style="fill:#000000; fill-opacity:1.000000; stroke:none;">
<circle cx="342.583711" cy="62.744261" r="0.175000" /> 
</g>
<g style="fill:#000000; fill-opacity:1.000000; stroke:none;">
<circle cx="336.767413" cy="73.387248" r="0.175000" /> 
</g>
<g style="fill:#000000; fill-opacity:1.000000; stroke:none;">
<circle cx="337.210814" cy="67.503933" r="0.175000" /> 
</g>
<g style="fill:#000000; fill-opacity:1.000000; stroke:none;">
<circle cx="331.939373" cy="70.917423" r="0.175000" /> 
</g>
<g style="fill:#000000; fill-opacity:1.000000; stroke:none;">
<circle cx="331.726368" cy="67.090593" r="0.175000" /> 
</g>
<g style="fill:#000000; fill-opacity:1.000000; stroke:none;">
<circle cx="281.000000" cy="88.000000" r="0.175000" /> 
</g>
<g style="fill:#000000; fill-opacity:1.000000; stroke:none;">
<circle cx="280.500000" cy="82.850000" r="0.175000" /> 
</g>
<g style="fill:#000000; fill-opacity:1.000000; stroke:none;">
<circle cx="275.500000" cy="93.900000" r="0.175000" /> 
</g>
<g style="fill:#000000; fill-opacity:1.000000; stroke:none;">
<circle cx="275.500000" cy="88.000000" r="0.175000" /> 
</g>
<g style="fill:#000000; fill-opacity:1.000000; stroke:none;">
<circle cx="270.500000" cy="91.800000" r="0.175000" /> 
</g>
<g style="fill:#000000; fill-opacity:1.000000; stroke:none;">
<circle cx="270.000000" cy="88.000000" r="0.175000" /> 
</g>
<g style="fill:#000000; fill-opacity:1.000000; stroke:none;">
<circle cx="172.354000" cy="133.311620" r="0.175000" /> 
</g>
<g style="fill:#000000; fill-opacity:1.000000; stroke:none;">
<circle cx="171.854000" cy="128.161620" r="0.175000" /> 
</g>
<g style="fill:#000000; fill-opacity:1.000000; stroke:none;">
<circle cx="166.854000" cy="139.211620" r="0.175000" /> 
</g>
<g style="fill:#000000; fill-opacity:1.000000; stroke:none;">
<circle cx="166.854000" cy="133.311620" r="0.175000" /> 
</g>
<g style="fill:#000000; fill-opacity:1.000000; stroke:none;">
<circle cx="161.854000" cy="137.111620" r="0.175000" /> 
</g>
<g style="fill:#000000; fill-opacity:1.000000; stroke:none;">
<circle cx="161.354000" cy="133.311620" r="0.175000" /> 
</g>
<g style="fill:#000000; fill-opacity:1.000000; stroke:none;">
<circle cx="145.750000" cy="98.400000" r="0.175000" /> 
</g>
<g style="fill:#000000; fill-opacity:1.000000; stroke:none;">
<circle cx="145.250000" cy="93.250000" r="0.175000" /> 
</g>
<g style="fill:#000000; fill-opacity:1.000000; stroke:none;">
<circle cx="140.250000" cy="104.300000" r="0.175000" /> 
</g>
<g style="fill:#000000; fill-opacity:1.000000; stroke:none;">
<circle cx="140.250000" cy="98.400000" r="0.175000" /> 
</g>
<g style="fill:#000000; fill-opacity:1.000000; stroke:none;">
<circle cx="135.250000" cy="102.200000" r="0.175000" /> 
</g>
<g style="fill:#000000; fill-opacity:1.000000; stroke:none;">
<circle cx="134.750000" cy="98.400000" r="0.175000" /> 
</g>
<g style="fill:#000000; fill-opacity:1.000000; stroke:none;">
<circle cx="207.840000" cy="109.400000" r="0.175000" /> 
</g>
<g style="fill:#000000; fill-opacity:1.000000; stroke:none;">
<circle cx="205.300000" cy="109.400000" r="0.175000" /> 
</g>
<g style="fill:#000000; fill-opacity:1.000000; stroke:none;">
<circle cx="202.760000" cy="109.400000" r="0.175000" /> 
</g>
<g style="fill:#000000; fill-opacity:1.000000; stroke:none;">
<circle cx="200.220000" cy="109.400000" r="0.175000" /> 
</g>
<g style="fill:#000000; fill-opacity:1.000000; stroke:none;">
<circle cx="197.680000" cy="109.400000" r="0.175000" /> 
</g>
<g style="fill:#000000; fill-opacity:1.000000; stroke:none;">
<circle cx="123.793427" cy="66.866660" r="0.175000" /> 
</g>
<g style="fill:#000000; fill-opacity:1.000000; stroke:none;">
<circle cx="122.907804" cy="61.768800" r="0.175000" /> 
</g>
<g style="fill:#000000; fill-opacity:1.000000; stroke:none;">
<circle cx="118.752382" cy="73.163315" r="0.175000" /> 
</g>
<g style="fill:#000000; fill-opacity:1.000000; stroke:none;">
<circle cx="118.308981" cy="67.280000" r="0.175000" /> 
</g>
<g style="fill:#000000; fill-opacity:1.000000; stroke:none;">
<circle cx="113.608701" cy="71.445018" r="0.175000" /> 
</g>
<g style="fill:#000000; fill-opacity:1.000000; stroke:none;">
<circle cx="112.824535" cy="67.693340" r="0.175000" /> 
</g>
<g style="fill:#000000; fill-opacity:1.000000; stroke:none;">
<circle cx="300.250000" cy="88.000000" r="0.175000" /> 
</g>
<g style="fill:#000000; fill-opacity:1.000000; stroke:none;">
<circle cx="299.750000" cy="82.850000" r="0.175000" /> 
</g>
<g style="fill:#000000; fill-opacity:1.000000; stroke:none;">
<circle cx="294.750000" cy="93.900000" r="0.175000" /> 
</g>
<g style="fill:#000000; fill-opacity:1.000000; stroke:none;">
<circle cx="294.750000" cy="88.000000" r="0.175000" /> 
</g>
<g style="fill:#000000; fill-opacity:1.000000; stroke:none;">
<circle cx="289.750000" cy="91.800000" r="0.175000" /> 
</g>
<g style="fill:#000000; fill-opacity:1.000000; stroke:none;">
<circle cx="289.250000" cy="88.000000" r="0.175000" /> 
</g>
<g style="fill:#000000; fill-opacity:1.000000; stroke:none;">
<circle cx="340.000000" cy="105.750000" r="0.175000" /> 
</g>
<g style="fill:#000000; fill-opacity:1.000000; stroke:none;">
<circle cx="339.888451" cy="100.576988" r="0.175000" /> 
</g>
<g style="fill:#000000; fill-opacity:1.000000; stroke:none;">
<circle cx="334.072153" cy="111.219975" r="0.175000" /> 
</g>
<g style="fill:#000000; fill-opacity:1.000000; stroke:none;">
<circle cx="334.515554" cy="105.336660" r="0.175000" /> 
</g>
<g style="fill:#000000; fill-opacity:1.000000; stroke:none;">
<circle cx="329.244113" cy="108.750150" r="0.175000" /> 
</g>
<g style="fill:#000000; fill-opacity:1.000000; stroke:none;">
<circle cx="329.031108" cy="104.923320" r="0.175000" /> 
</g>
<g style="fill:#000000; fill-opacity:1.000000; stroke:none;">
<circle cx="294.250000" cy="133.250000" r="0.175000" /> 
</g>
<g style="fill:#000000; fill-opacity:1.000000; stroke:none;">
<circle cx="293.750000" cy="128.100000" r="0.175000" /> 
</g>
<g style="fill:#000000; fill-opacity:1.000000; stroke:none;">
<circle cx="288.750000" cy="139.150001" r="0.175000" /> 
</g>
<g style="fill:#000000; fill-opacity:1.000000; stroke:none;">
<circle cx="288.750000" cy="133.250000" r="0.175000" /> 
</g>
<g style="fill:#000000; fill-opacity:1.000000; stroke:none;">
<circle cx="283.750000" cy="137.050000" r="0.175000" /> 
</g>
<g style="fill:#000000; fill-opacity:1.000000; stroke:none;">
<circle cx="283.250000" cy="133.250000" r="0.175000" /> 
</g>
<g style="fill:#000000; fill-opacity:1.000000; stroke:none;">
<circle cx="360.000000" cy="121.250000" r="0.175000" /> 
</g>
<g style="fill:#000000; fill-opacity:1.000000; stroke:none;">
<circle cx="360.348744" cy="116.087551" r="0.175000" /> 
</g>
<g style="fill:#000000; fill-opacity:1.000000; stroke:none;">
<circle cx="353.609371" cy="126.171367" r="0.175000" /> 
</g>
<g style="fill:#000000; fill-opacity:1.000000; stroke:none;">
<circle cx="354.574010" cy="120.350760" r="0.175000" /> 
</g>
<g style="fill:#000000; fill-opacity:1.000000; stroke:none;">
<circle cx="349.019999" cy="123.282135" r="0.175000" /> 
</g>
<g style="fill:#000000; fill-opacity:1.000000; stroke:none;">
<circle cx="349.148020" cy="119.451520" r="0.175000" /> 
</g>
<g style="fill:#000000; fill-opacity:1.000000; stroke:none;">
<circle cx="125.043427" cy="85.866660" r="0.175000" /> 
</g>
<g style="fill:#000000; fill-opacity:1.000000; stroke:none;">
<circle cx="124.157804" cy="80.768800" r="0.175000" /> 
</g>
<g style="fill:#000000; fill-opacity:1.000000; stroke:none;">
<circle cx="120.002382" cy="92.163315" r="0.175000" /> 
</g>
<g style="fill:#000000; fill-opacity:1.000000; stroke:none;">
<circle cx="119.558981" cy="86.280000" r="0.175000" /> 
</g>
<g style="fill:#000000; fill-opacity:1.000000; stroke:none;">
<circle cx="114.858701" cy="90.445018" r="0.175000" /> 
</g>
<g style="fill:#000000; fill-opacity:1.000000; stroke:none;">
<circle cx="114.074535" cy="86.693340" r="0.175000" /> 
</g>
<g style="fill:#000000; fill-opacity:1.000000; stroke:none;">
<circle cx="320.734446" cy="98.650000" r="0.175000" /> 
</g>
<g style="fill:#000000; fill-opacity:1.000000; stroke:none;">
<circle cx="320.234446" cy="93.500000" r="0.175000" /> 
</g>
<g style="fill:#000000; fill-opacity:1.000000; stroke:none;">
<circle cx="315.234446" cy="104.550000" r="0.175000" /> 
</g>
<g style="fill:#000000; fill-opacity:1.000000; stroke:none;">
<circle cx="315.234446" cy="98.650000" r="0.175000" /> 
</g>
<g style="fill:#000000; fill-opacity:1.000000; stroke:none;">
<circle cx="310.234446" cy="102.450000" r="0.175000" /> 
</g>
<g style="fill:#000000; fill-opacity:1.000000; stroke:none;">
<circle cx="309.734446" cy="98.650000" r="0.175000" /> 
</g>
<g style="fill:#000000; fill-opacity:1.000000; stroke:none;">
<circle cx="166.282000" cy="87.650000" r="0.175000" /> 
</g>
<g style="fill:#000000; fill-opacity:1.000000; stroke:none;">
<circle cx="165.782000" cy="82.500000" r="0.175000" /> 
</g>
<g style="fill:#000000; fill-opacity:1.000000; stroke:none;">
<circle cx="160.782000" cy="93.550000" r="0.175000" /> 
</g>
<g style="fill:#000000; fill-opacity:1.000000; stroke:none;">
<circle cx="160.782000" cy="87.650000" r="0.175000" /> 
</g>
<g style="fill:#000000; fill-opacity:1.000000; stroke:none;">
<circle cx="155.782000" cy="91.450000" r="0.175000" /> 
</g>
<g style="fill:#000000; fill-opacity:1.000000; stroke:none;">
<circle cx="155.282000" cy="87.650000" r="0.175000" /> 
</g>
<g style="fill:#000000; fill-opacity:1.000000; stroke:none;">
<circle cx="87.335287" cy="122.498950" r="0.175000" /> 
</g>
<g style="fill:#000000; fill-opacity:1.000000; stroke:none;">
<circle cx="86.000000" cy="117.500000" r="0.175000" /> 
</g>
<g style="fill:#000000; fill-opacity:1.000000; stroke:none;">
<circle cx="82.873936" cy="129.218797" r="0.175000" /> 
</g>
<g style="fill:#000000; fill-opacity:1.000000; stroke:none;">
<circle cx="81.909297" cy="123.398190" r="0.175000" /> 
</g>
<g style="fill:#000000; fill-opacity:1.000000; stroke:none;">
<circle cx="77.597872" cy="127.964547" r="0.175000" /> 
</g>
<g style="fill:#000000; fill-opacity:1.000000; stroke:none;">
<circle cx="76.483307" cy="124.297430" r="0.175000" /> 
</g>
<g style="fill:#000000; fill-opacity:1.000000; stroke:none;">
<circle cx="366.151256" cy="83.912449" r="0.175000" /> 
</g>
<g style="fill:#000000; fill-opacity:1.000000; stroke:none;">
<circle cx="366.500000" cy="78.750000" r="0.175000" /> 
</g>
<g style="fill:#000000; fill-opacity:1.000000; stroke:none;">
<circle cx="359.760627" cy="88.833816" r="0.175000" /> 
</g>
<g style="fill:#000000; fill-opacity:1.000000; stroke:none;">
<circle cx="360.725266" cy="83.013209" r="0.175000" /> 
</g>
<g style="fill:#000000; fill-opacity:1.000000; stroke:none;">
<circle cx="355.171255" cy="85.944584" r="0.175000" /> 
</g>
<g style="fill:#000000; fill-opacity:1.000000; stroke:none;">
<circle cx="355.299276" cy="82.113969" r="0.175000" /> 
</g>
<g style="fill:#000000; fill-opacity:1.000000; stroke:none;">
<circle cx="271.250000" cy="134.250000" r="0.175000" /> 
</g>
<g style="fill:#000000; fill-opacity:1.000000; stroke:none;">
<circle cx="269.509596" cy="129.377271" r="0.175000" /> 
</g>
<g style="fill:#000000; fill-opacity:1.000000; stroke:none;">
<circle cx="267.354265" cy="141.312808" r="0.175000" /> 
</g>
<g style="fill:#000000; fill-opacity:1.000000; stroke:none;">
<circle cx="265.915938" cy="135.590814" r="0.175000" /> 
</g>
<g style="fill:#000000; fill-opacity:1.000000; stroke:none;">
<circle cx="261.993171" cy="140.495087" r="0.175000" /> 
</g>
<g style="fill:#000000; fill-opacity:1.000000; stroke:none;">
<circle cx="260.581876" cy="136.931628" r="0.175000" /> 
</g>
<g style="fill:#000000; fill-opacity:1.000000; stroke:none;">
<circle cx="185.500000" cy="87.750000" r="0.175000" /> 
</g>
<g style="fill:#000000; fill-opacity:1.000000; stroke:none;">
<circle cx="185.000000" cy="82.600000" r="0.175000" /> 
</g>
<g style="fill:#000000; fill-opacity:1.000000; stroke:none;">
<circle cx="180.000000" cy="93.650000" r="0.175000" /> 
</g>
<g style="fill:#000000; fill-opacity:1.000000; stroke:none;">
<circle cx="180.000000" cy="87.750000" r="0.175000" /> 
</g>
<g style="fill:#000000; fill-opacity:1.000000; stroke:none;">
<circle cx="175.000000" cy="91.550000" r="0.175000" /> 
</g>
<g style="fill:#000000; fill-opacity:1.000000; stroke:none;">
<circle cx="174.500000" cy="87.750000" r="0.175000" /> 
</g>
<g style="fill:#000000; fill-opacity:1.000000; stroke:none;">
<circle cx="300.250000" cy="107.000000" r="0.175000" /> 
</g>
<g style="fill:#000000; fill-opacity:1.000000; stroke:none;">
<circle cx="299.750000" cy="101.850000" r="0.175000" /> 
</g>
<g style="fill:#000000; fill-opacity:1.000000; stroke:none;">
<circle cx="294.750000" cy="112.900000" r="0.175000" /> 
</g>
<g style="fill:#000000; fill-opacity:1.000000; stroke:none;">
<circle cx="294.750000" cy="107.000000" r="0.175000" /> 
</g>
<g style="fill:#000000; fill-opacity:1.000000; stroke:none;">
<circle cx="289.750000" cy="110.800000" r="0.175000" /> 
</g>
<g style="fill:#000000; fill-opacity:1.000000; stroke:none;">
<circle cx="289.250000" cy="107.000000" r="0.175000" /> 
</g>
<g style="fill:#000000; fill-opacity:1.000000; stroke:none;">
<circle cx="65.000000" cy="84.800000" r="0.175000" /> 
</g>
<g style="fill:#000000; fill-opacity:1.000000; stroke:none;">
<circle cx="244.965331" cy="60.927500" r="0.175000" /> 
</g>
<g style="fill:#000000; fill-opacity:1.000000; stroke:none;">
<circle cx="244.965331" cy="63.467500" r="0.175000" /> 
</g>
<g style="fill:#000000; fill-opacity:1.000000; stroke:none;">
<circle cx="244.965331" cy="66.007500" r="0.175000" /> 
</g>
<g style="fill:#000000; fill-opacity:1.000000; stroke:none;">
<circle cx="244.965331" cy="68.547500" r="0.175000" /> 
</g>
<g style="fill:#000000; fill-opacity:1.000000; stroke:none;">
<circle cx="244.965331" cy="71.087500" r="0.175000" /> 
</g>
<g style="fill:#000000; fill-opacity:1.000000; stroke:none;">
<circle cx="244.965331" cy="73.627500" r="0.175000" /> 
</g>
<g style="fill:#000000; fill-opacity:1.000000; stroke:none;">
<circle cx="244.965331" cy="76.167500" r="0.175000" /> 
</g>
<g style="fill:#000000; fill-opacity:1.000000; stroke:none;">
<circle cx="244.965331" cy="78.707500" r="0.175000" /> 
</g>
<g style="fill:#000000; fill-opacity:1.000000; stroke:none;">
<circle cx="244.965331" cy="81.247500" r="0.175000" /> 
</g>
<g style="fill:#000000; fill-opacity:1.000000; stroke:none;">
<circle cx="244.965331" cy="83.787500" r="0.175000" /> 
</g>
<g style="fill:#000000; fill-opacity:1.000000; stroke:none;">
<circle cx="244.965331" cy="86.327500" r="0.175000" /> 
</g>
<g style="fill:#000000; fill-opacity:1.000000; stroke:none;">
<circle cx="244.965331" cy="88.867500" r="0.175000" /> 
</g>
<g style="fill:#000000; fill-opacity:1.000000; stroke:none;">
<circle cx="260.205331" cy="60.927500" r="0.175000" /> 
</g>
<g style="fill:#000000; fill-opacity:1.000000; stroke:none;">
<circle cx="260.205331" cy="63.467500" r="0.175000" /> 
</g>
<g style="fill:#000000; fill-opacity:1.000000; stroke:none;">
<circle cx="260.205331" cy="66.007500" r="0.175000" /> 
</g>
<g style="fill:#000000; fill-opacity:1.000000; stroke:none;">
<circle cx="260.205331" cy="68.547500" r="0.175000" /> 
</g>
<g style="fill:#000000; fill-opacity:1.000000; stroke:none;">
<circle cx="260.205331" cy="71.087500" r="0.175000" /> 
</g>
<g style="fill:#000000; fill-opacity:1.000000; stroke:none;">
<circle cx="260.205331" cy="73.627500" r="0.175000" /> 
</g>
<g style="fill:#000000; fill-opacity:1.000000; stroke:none;">
<circle cx="260.205331" cy="76.167500" r="0.175000" /> 
</g>
<g style="fill:#000000; fill-opacity:1.000000; stroke:none;">
<circle cx="260.205331" cy="78.707500" r="0.175000" /> 
</g>
<g style="fill:#000000; fill-opacity:1.000000; stroke:none;">
<circle cx="260.205331" cy="81.247500" r="0.175000" /> 
</g>
<g style="fill:#000000; fill-opacity:1.000000; stroke:none;">
<circle cx="260.205331" cy="83.787500" r="0.175000" /> 
</g>
<g style="fill:#000000; fill-opacity:1.000000; stroke:none;">
<circle cx="260.205331" cy="86.327500" r="0.175000" /> 
</g>
<g style="fill:#000000; fill-opacity:1.000000; stroke:none;">
<circle cx="260.205331" cy="88.867500" r="0.175000" /> 
</g>
<g style="fill:#000000; fill-opacity:1.000000; stroke:none;">
<circle cx="244.965331" cy="58.387500" r="0.175000" /> 
</g>
<g style="fill:#000000; fill-opacity:1.000000; stroke:none;">
<circle cx="260.205331" cy="58.387500" r="0.175000" /> 
</g>
<g style="fill:#000000; fill-opacity:1.000000; stroke:none;">
<circle cx="281.000000" cy="106.899000" r="0.175000" /> 
</g>
<g style="fill:#000000; fill-opacity:1.000000; stroke:none;">
<circle cx="280.500000" cy="101.749000" r="0.175000" /> 
</g>
<g style="fill:#000000; fill-opacity:1.000000; stroke:none;">
<circle cx="275.500000" cy="112.799000" r="0.175000" /> 
</g>
<g style="fill:#000000; fill-opacity:1.000000; stroke:none;">
<circle cx="275.500000" cy="106.899000" r="0.175000" /> 
</g>
<g style="fill:#000000; fill-opacity:1.000000; stroke:none;">
<circle cx="270.500000" cy="110.699000" r="0.175000" /> 
</g>
<g style="fill:#000000; fill-opacity:1.000000; stroke:none;">
<circle cx="270.000000" cy="106.899000" r="0.175000" /> 
</g>
<g style="fill:#000000; fill-opacity:1.000000; stroke:none;">
<circle cx="115.200000" cy="120.600000" r="0.175000" /> 
</g>
<g style="fill:#000000; fill-opacity:1.000000; stroke:none;">
<circle cx="84.250000" cy="103.750000" r="0.175000" /> 
</g>
<g style="fill:#000000; fill-opacity:1.000000; stroke:none;">
<circle cx="82.914713" cy="98.751050" r="0.175000" /> 
</g>
<g style="fill:#000000; fill-opacity:1.000000; stroke:none;">
<circle cx="79.788649" cy="110.469847" r="0.175000" /> 
</g>
<g style="fill:#000000; fill-opacity:1.000000; stroke:none;">
<circle cx="78.824010" cy="104.649240" r="0.175000" /> 
</g>
<g style="fill:#000000; fill-opacity:1.000000; stroke:none;">
<circle cx="74.512585" cy="109.215597" r="0.175000" /> 
</g>
<g style="fill:#000000; fill-opacity:1.000000; stroke:none;">
<circle cx="73.398020" cy="105.548480" r="0.175000" /> 
</g>
<g style="fill:#000000; fill-opacity:1.000000; stroke:none;">
<circle cx="185.396000" cy="106.750000" r="0.175000" /> 
</g>
<g style="fill:#000000; fill-opacity:1.000000; stroke:none;">
<circle cx="184.896000" cy="101.600000" r="0.175000" /> 
</g>
<g style="fill:#000000; fill-opacity:1.000000; stroke:none;">
<circle cx="179.896000" cy="112.650000" r="0.175000" /> 
</g>
<g style="fill:#000000; fill-opacity:1.000000; stroke:none;">
<circle cx="179.896000" cy="106.750000" r="0.175000" /> 
</g>
<g style="fill:#000000; fill-opacity:1.000000; stroke:none;">
<circle cx="174.896000" cy="110.550000" r="0.175000" /> 
</g>
<g style="fill:#000000; fill-opacity:1.000000; stroke:none;">
<circle cx="174.396000" cy="106.750000" r="0.175000" /> 
</g>
<g style="fill:#000000; fill-opacity:1.000000; stroke:none;">
<circle cx="170.500000" cy="59.200000" r="0.175000" /> 
</g>
<g style="fill:#000000; fill-opacity:1.000000; stroke:none;">
<circle cx="296.750000" cy="120.000000" r="0.175000" /> 
</g>
<g style="fill:#000000; fill-opacity:1.000000; stroke:none;">
<circle cx="201.500000" cy="57.350000" r="0.175000" /> 
</g>
<g style="fill:#000000; fill-opacity:1.000000; stroke:none;">
<circle cx="204.500000" cy="57.400000" r="0.175000" /> 
</g>
<g style="fill:#000000; fill-opacity:1.000000; stroke:none;">
<circle cx="216.397587" cy="149.931128" r="0.175000" /> 
</g>
<g style="fill:#000000; fill-opacity:1.000000; stroke:none;">
<circle cx="218.722031" cy="145.308417" r="0.175000" /> 
</g>
<g style="fill:#000000; fill-opacity:1.000000; stroke:none;">
<circle cx="208.598117" cy="151.987404" r="0.175000" /> 
</g>
<g style="fill:#000000; fill-opacity:1.000000; stroke:none;">
<circle cx="211.745572" cy="146.997060" r="0.175000" /> 
</g>
<g style="fill:#000000; fill-opacity:1.000000; stroke:none;">
<circle cx="205.489293" cy="147.543845" r="0.175000" /> 
</g>
<g style="fill:#000000; fill-opacity:1.000000; stroke:none;">
<circle cx="207.093557" cy="144.062992" r="0.175000" /> 
</g>
<g style="fill:#000000; fill-opacity:1.000000; stroke:none;">
<circle cx="194.100000" cy="96.800000" r="0.175000" /> 
</g>
<g style="fill:#000000; fill-opacity:1.000000; stroke:none;">
<circle cx="194.100000" cy="98.800000" r="0.175000" /> 
</g>
<g style="fill:#000000; fill-opacity:1.000000; stroke:none;">
<circle cx="320.750000" cy="60.500000" r="0.175000" /> 
</g>
<g style="fill:#000000; fill-opacity:1.000000; stroke:none;">
<circle cx="320.250000" cy="55.350000" r="0.175000" /> 
</g>
<g style="fill:#000000; fill-opacity:1.000000; stroke:none;">
<circle cx="315.250000" cy="66.400000" r="0.175000" /> 
</g>
<g style="fill:#000000; fill-opacity:1.000000; stroke:none;">
<circle cx="315.250000" cy="60.500000" r="0.175000" /> 
</g>
<g style="fill:#000000; fill-opacity:1.000000; stroke:none;">
<circle cx="310.250000" cy="64.300000" r="0.175000" /> 
</g>
<g style="fill:#000000; fill-opacity:1.000000; stroke:none;">
<circle cx="309.750000" cy="60.500000" r="0.175000" /> 
</g>
<g style="fill:#000000; fill-opacity:1.000000; stroke:none;">
<circle cx="158.700000" cy="119.800000" r="0.175000" /> 
</g>
<g style="fill:#000000; fill-opacity:1.000000; stroke:none;">
<circle cx="202.400000" cy="134.500000" r="0.175000" /> 
</g>
<g style="fill:#000000; fill-opacity:1.000000; stroke:none;">
<circle cx="185.524000" cy="68.750000" r="0.175000" /> 
</g>
<g style="fill:#000000; fill-opacity:1.000000; stroke:none;">
<circle cx="185.024000" cy="63.600000" r="0.175000" /> 
</g>
<g style="fill:#000000; fill-opacity:1.000000; stroke:none;">
<circle cx="180.024000" cy="74.650000" r="0.175000" /> 
</g>
<g style="fill:#000000; fill-opacity:1.000000; stroke:none;">
<circle cx="180.024000" cy="68.750000" r="0.175000" /> 
</g>
<g style="fill:#000000; fill-opacity:1.000000; stroke:none;">
<circle cx="175.024000" cy="72.550000" r="0.175000" /> 
</g>
<g style="fill:#000000; fill-opacity:1.000000; stroke:none;">
<circle cx="174.524000" cy="68.750000" r="0.175000" /> 
</g>
<g style="fill:#000000; fill-opacity:1.000000; stroke:none;">
<circle cx="382.101980" cy="105.798480" r="0.175000" /> 
</g>
<g style="fill:#000000; fill-opacity:1.000000; stroke:none;">
<circle cx="382.450724" cy="100.636031" r="0.175000" /> 
</g>
<g style="fill:#000000; fill-opacity:1.000000; stroke:none;">
<circle cx="375.711351" cy="110.719847" r="0.175000" /> 
</g>
<g style="fill:#000000; fill-opacity:1.000000; stroke:none;">
<circle cx="376.675990" cy="104.899240" r="0.175000" /> 
</g>
<g style="fill:#000000; fill-opacity:1.000000; stroke:none;">
<circle cx="371.121979" cy="107.830615" r="0.175000" /> 
</g>
<g style="fill:#000000; fill-opacity:1.000000; stroke:none;">
<circle cx="371.250000" cy="104.000000" r="0.175000" /> 
</g>
<g style="fill:#000000; fill-opacity:1.000000; stroke:none;">
<circle cx="385.101980" cy="87.048480" r="0.175000" /> 
</g>
<g style="fill:#000000; fill-opacity:1.000000; stroke:none;">
<circle cx="385.450724" cy="81.886031" r="0.175000" /> 
</g>
<g style="fill:#000000; fill-opacity:1.000000; stroke:none;">
<circle cx="378.711351" cy="91.969847" r="0.175000" /> 
</g>
<g style="fill:#000000; fill-opacity:1.000000; stroke:none;">
<circle cx="379.675990" cy="86.149240" r="0.175000" /> 
</g>
<g style="fill:#000000; fill-opacity:1.000000; stroke:none;">
<circle cx="374.121979" cy="89.080615" r="0.175000" /> 
</g>
<g style="fill:#000000; fill-opacity:1.000000; stroke:none;">
<circle cx="374.250000" cy="85.250000" r="0.175000" /> 
</g>
<g style="fill:#000000; fill-opacity:1.000000; stroke:none;">
<circle cx="100.085287" cy="81.748950" r="0.175000" /> 
</g>
<g style="fill:#000000; fill-opacity:1.000000; stroke:none;">
<circle cx="98.750000" cy="76.750000" r="0.175000" /> 
</g>
<g style="fill:#000000; fill-opacity:1.000000; stroke:none;">
<circle cx="95.623936" cy="88.468797" r="0.175000" /> 
</g>
<g style="fill:#000000; fill-opacity:1.000000; stroke:none;">
<circle cx="94.659297" cy="82.648190" r="0.175000" /> 
</g>
<g style="fill:#000000; fill-opacity:1.000000; stroke:none;">
<circle cx="90.347872" cy="87.214547" r="0.175000" /> 
</g>
<g style="fill:#000000; fill-opacity:1.000000; stroke:none;">
<circle cx="89.233307" cy="83.547430" r="0.175000" /> 
</g>
<g style="fill:#000000; fill-opacity:1.000000; stroke:none;">
<circle cx="145.708000" cy="79.285000" r="0.175000" /> 
</g>
<g style="fill:#000000; fill-opacity:1.000000; stroke:none;">
<circle cx="145.208000" cy="74.135000" r="0.175000" /> 
</g>
<g style="fill:#000000; fill-opacity:1.000000; stroke:none;">
<circle cx="140.208000" cy="85.185000" r="0.175000" /> 
</g>
<g style="fill:#000000; fill-opacity:1.000000; stroke:none;">
<circle cx="140.208000" cy="79.285000" r="0.175000" /> 
</g>
<g style="fill:#000000; fill-opacity:1.000000; stroke:none;">
<circle cx="135.208000" cy="83.085000" r="0.175000" /> 
</g>
<g style="fill:#000000; fill-opacity:1.000000; stroke:none;">
<circle cx="134.708000" cy="79.285000" r="0.175000" /> 
</g>
<g style="fill:#000000; fill-opacity:1.000000; stroke:none;">
<circle cx="248.304030" cy="144.131864" r="0.175000" /> 
</g>
<g style="fill:#000000; fill-opacity:1.000000; stroke:none;">
<circle cx="245.133765" cy="140.042620" r="0.175000" /> 
</g>
<g style="fill:#000000; fill-opacity:1.000000; stroke:none;">
<circle cx="246.799470" cy="152.056276" r="0.175000" /> 
</g>
<g style="fill:#000000; fill-opacity:1.000000; stroke:none;">
<circle cx="243.652015" cy="147.065932" r="0.175000" /> 
</g>
<g style="fill:#000000; fill-opacity:1.000000; stroke:none;">
<circle cx="241.450085" cy="152.947386" r="0.175000" /> 
</g>
<g style="fill:#000000; fill-opacity:1.000000; stroke:none;">
<circle cx="239.000000" cy="150.000000" r="0.175000" /> 
</g>
<g style="fill:#000000; fill-opacity:1.000000; stroke:none;">
<circle cx="106.200000" cy="72.900000" r="0.175000" /> 
</g>
<g style="fill:#000000; fill-opacity:1.000000; stroke:none;">
<circle cx="126.543427" cy="104.866660" r="0.175000" /> 
</g>
<g style="fill:#000000; fill-opacity:1.000000; stroke:none;">
<circle cx="125.657804" cy="99.768800" r="0.175000" /> 
</g>
<g style="fill:#000000; fill-opacity:1.000000; stroke:none;">
<circle cx="121.502382" cy="111.163315" r="0.175000" /> 
</g>
<g style="fill:#000000; fill-opacity:1.000000; stroke:none;">
<circle cx="121.058981" cy="105.280000" r="0.175000" /> 
</g>
<g style="fill:#000000; fill-opacity:1.000000; stroke:none;">
<circle cx="116.358701" cy="109.445018" r="0.175000" /> 
</g>
<g style="fill:#000000; fill-opacity:1.000000; stroke:none;">
<circle cx="115.574535" cy="105.693340" r="0.175000" /> 
</g>
<g style="fill:#000000; fill-opacity:1.000000; stroke:none;">
<circle cx="261.250000" cy="97.000000" r="0.175000" /> 
</g>
<g style="fill:#000000; fill-opacity:1.000000; stroke:none;">
<circle cx="261.250000" cy="99.000000" r="0.175000" /> 
</g>
<g style="fill:#000000; fill-opacity:1.000000; stroke:none;">
<circle cx="253.026600" cy="134.704000" r="0.175000" /> 
</g>
<g style="fill:#000000; fill-opacity:1.000000; stroke:none;">
<circle cx="363.101980" cy="102.399240" r="0.175000" /> 
</g>
<g style="fill:#000000; fill-opacity:1.000000; stroke:none;">
<circle cx="363.450724" cy="97.236791" r="0.175000" /> 
</g>
<g style="fill:#000000; fill-opacity:1.000000; stroke:none;">
<circle cx="356.711351" cy="107.320607" r="0.175000" /> 
</g>
<g style="fill:#000000; fill-opacity:1.000000; stroke:none;">
<circle cx="357.675990" cy="101.500000" r="0.175000" /> 
</g>
<g style="fill:#000000; fill-opacity:1.000000; stroke:none;">
<circle cx="352.121979" cy="104.431375" r="0.175000" /> 
</g>
<g style="fill:#000000; fill-opacity:1.000000; stroke:none;">
<circle cx="352.250000" cy="100.600760" r="0.175000" /> 
</g>
<g style="fill:#000000; fill-opacity:1.000000; stroke:none;">
<circle cx="378.901256" cy="124.412449" r="0.175000" /> 
</g>
<g style="fill:#000000; fill-opacity:1.000000; stroke:none;">
<circle cx="379.250000" cy="119.250000" r="0.175000" /> 
</g>
<g style="fill:#000000; fill-opacity:1.000000; stroke:none;">
<circle cx="372.510627" cy="129.333816" r="0.175000" /> 
</g>
<g style="fill:#000000; fill-opacity:1.000000; stroke:none;">
<circle cx="373.475266" cy="123.513209" r="0.175000" /> 
</g>
<g style="fill:#000000; fill-opacity:1.000000; stroke:none;">
<circle cx="367.921255" cy="126.444584" r="0.175000" /> 
</g>
<g style="fill:#000000; fill-opacity:1.000000; stroke:none;">
<circle cx="368.049276" cy="122.613969" r="0.175000" /> 
</g>
<g style="fill:#000000; fill-opacity:1.000000; stroke:none;">
<circle cx="251.125000" cy="57.130000" r="0.175000" /> 
</g>
<g style="fill:#000000; fill-opacity:1.000000; stroke:none;">
<circle cx="254.125000" cy="57.180000" r="0.175000" /> 
</g>
<g style="fill:#000000; fill-opacity:1.000000; stroke:none;">
<circle cx="300.000000" cy="69.000000" r="0.175000" /> 
</g>
<g style="fill:#000000; fill-opacity:1.000000; stroke:none;">
<circle cx="299.500000" cy="63.850000" r="0.175000" /> 
</g>
<g style="fill:#000000; fill-opacity:1.000000; stroke:none;">
<circle cx="294.500000" cy="74.900000" r="0.175000" /> 
</g>
<g style="fill:#000000; fill-opacity:1.000000; stroke:none;">
<circle cx="294.500000" cy="69.000000" r="0.175000" /> 
</g>
<g style="fill:#000000; fill-opacity:1.000000; stroke:none;">
<circle cx="289.500000" cy="72.800000" r="0.175000" /> 
</g>
<g style="fill:#000000; fill-opacity:1.000000; stroke:none;">
<circle cx="289.000000" cy="69.000000" r="0.175000" /> 
</g>
<g style="fill:#000000; fill-opacity:1.000000; stroke:none;">
<circle cx="166.282000" cy="106.650000" r="0.175000" /> 
</g>
<g style="fill:#000000; fill-opacity:1.000000; stroke:none;">
<circle cx="165.782000" cy="101.500000" r="0.175000" /> 
</g>
<g style="fill:#000000; fill-opacity:1.000000; stroke:none;">
<circle cx="160.782000" cy="112.550000" r="0.175000" /> 
</g>
<g style="fill:#000000; fill-opacity:1.000000; stroke:none;">
<circle cx="160.782000" cy="106.650000" r="0.175000" /> 
</g>
<g style="fill:#000000; fill-opacity:1.000000; stroke:none;">
<circle cx="155.782000" cy="110.450000" r="0.175000" /> 
</g>
<g style="fill:#000000; fill-opacity:1.000000; stroke:none;">
<circle cx="155.282000" cy="106.650000" r="0.175000" /> 
</g>
<g style="fill:#000000; fill-opacity:1.000000; stroke:none;">
<circle cx="166.338000" cy="68.750000" r="0.175000" /> 
</g>
<g style="fill:#000000; fill-opacity:1.000000; stroke:none;">
<circle cx="165.838000" cy="63.600000" r="0.175000" /> 
</g>
<g style="fill:#000000; fill-opacity:1.000000; stroke:none;">
<circle cx="160.838000" cy="74.650000" r="0.175000" /> 
</g>
<g style="fill:#000000; fill-opacity:1.000000; stroke:none;">
<circle cx="160.838000" cy="68.750000" r="0.175000" /> 
</g>
<g style="fill:#000000; fill-opacity:1.000000; stroke:none;">
<circle cx="155.838000" cy="72.550000" r="0.175000" /> 
</g>
<g style="fill:#000000; fill-opacity:1.000000; stroke:none;">
<circle cx="155.338000" cy="68.750000" r="0.175000" /> 
</g>
<g style="fill:#000000; fill-opacity:1.000000; stroke:none;">
<circle cx="210.612500" cy="104.700000" r="0.175000" /> 
</g>
<g style="fill:#000000; fill-opacity:1.000000; stroke:none;">
<circle cx="203.612500" cy="104.700000" r="0.175000" /> 
</g>
<g style="fill:none; 
stroke:#000000; stroke-width:0.900000; stroke-opacity:1; 
stroke-linecap:round; stroke-linejoin:round;">
<path d="M201.112500 102.400000
L200.712500 102.400000
" />
<path d="M202.212500 107.000000
L201.812500 107.000000
" />
<path d="M206.212500 107.000000
L205.812500 107.000000
" />
<path d="M209.212500 107.000000
L208.812500 107.000000
" />
</g>
<g style="fill:#000000; fill-opacity:1.000000; stroke:none;">
<circle cx="106.335287" cy="119.248950" r="0.175000" /> 
</g>
<g style="fill:#000000; fill-opacity:1.000000; stroke:none;">
<circle cx="105.000000" cy="114.250000" r="0.175000" /> 
</g>
<g style="fill:#000000; fill-opacity:1.000000; stroke:none;">
<circle cx="101.873936" cy="125.968797" r="0.175000" /> 
</g>
<g style="fill:#000000; fill-opacity:1.000000; stroke:none;">
<circle cx="100.909297" cy="120.148190" r="0.175000" /> 
</g>
<g style="fill:#000000; fill-opacity:1.000000; stroke:none;">
<circle cx="96.597872" cy="124.714547" r="0.175000" /> 
</g>
<g style="fill:#000000; fill-opacity:1.000000; stroke:none;">
<circle cx="95.483307" cy="121.047430" r="0.175000" /> 
</g>
<g style="fill:#000000; fill-opacity:1.000000; stroke:none;">
<circle cx="349.250000" cy="73.000000" r="0.175000" /> 
</g>
<g style="fill:#000000; fill-opacity:1.000000; stroke:none;">
<circle cx="285.000000" cy="59.400000" r="0.175000" /> 
</g>
<g style="fill:#000000; fill-opacity:1.000000; stroke:none;">
<circle cx="390.500000" cy="85.000000" r="0.175000" /> 
</g>
<g style="fill:#000000; fill-opacity:1.000000; stroke:none;">
<circle cx="340.250000" cy="120.750000" r="0.175000" /> 
</g>
<g style="fill:#000000; fill-opacity:1.000000; stroke:none;">
<circle cx="145.598000" cy="60.500000" r="0.175000" /> 
</g>
<g style="fill:#000000; fill-opacity:1.000000; stroke:none;">
<circle cx="145.098000" cy="55.350000" r="0.175000" /> 
</g>
<g style="fill:#000000; fill-opacity:1.000000; stroke:none;">
<circle cx="140.098000" cy="66.400000" r="0.175000" /> 
</g>
<g style="fill:#000000; fill-opacity:1.000000; stroke:none;">
<circle cx="140.098000" cy="60.500000" r="0.175000" /> 
</g>
<g style="fill:#000000; fill-opacity:1.000000; stroke:none;">
<circle cx="135.098000" cy="64.300000" r="0.175000" /> 
</g>
<g style="fill:#000000; fill-opacity:1.000000; stroke:none;">
<circle cx="134.598000" cy="60.500000" r="0.175000" /> 
</g>
<g style="fill:#000000; fill-opacity:1.000000; stroke:none;">
<circle cx="195.200000" cy="60.740000" r="0.175000" /> 
</g>
<g style="fill:#000000; fill-opacity:1.000000; stroke:none;">
<circle cx="195.200000" cy="63.280000" r="0.175000" /> 
</g>
<g style="fill:#000000; fill-opacity:1.000000; stroke:none;">
<circle cx="195.200000" cy="65.820000" r="0.175000" /> 
</g>
<g style="fill:#000000; fill-opacity:1.000000; stroke:none;">
<circle cx="195.200000" cy="68.360000" r="0.175000" /> 
</g>
<g style="fill:#000000; fill-opacity:1.000000; stroke:none;">
<circle cx="195.200000" cy="70.900000" r="0.175000" /> 
</g>
<g style="fill:#000000; fill-opacity:1.000000; stroke:none;">
<circle cx="195.200000" cy="73.440000" r="0.175000" /> 
</g>
<g style="fill:#000000; fill-opacity:1.000000; stroke:none;">
<circle cx="195.200000" cy="75.980000" r="0.175000" /> 
</g>
<g style="fill:#000000; fill-opacity:1.000000; stroke:none;">
<circle cx="195.200000" cy="78.520000" r="0.175000" /> 
</g>
<g style="fill:#000000; fill-opacity:1.000000; stroke:none;">
<circle cx="195.200000" cy="81.060000" r="0.175000" /> 
</g>
<g style="fill:#000000; fill-opacity:1.000000; stroke:none;">
<circle cx="195.200000" cy="83.600000" r="0.175000" /> 
</g>
<g style="fill:#000000; fill-opacity:1.000000; stroke:none;">
<circle cx="195.200000" cy="86.140000" r="0.175000" /> 
</g>
<g style="fill:#000000; fill-opacity:1.000000; stroke:none;">
<circle cx="195.200000" cy="88.680000" r="0.175000" /> 
</g>
<g style="fill:#000000; fill-opacity:1.000000; stroke:none;">
<circle cx="210.440000" cy="60.740000" r="0.175000" /> 
</g>
<g style="fill:#000000; fill-opacity:1.000000; stroke:none;">
<circle cx="210.440000" cy="63.280000" r="0.175000" /> 
</g>
<g style="fill:#000000; fill-opacity:1.000000; stroke:none;">
<circle cx="210.440000" cy="65.820000" r="0.175000" /> 
</g>
<g style="fill:#000000; fill-opacity:1.000000; stroke:none;">
<circle cx="210.440000" cy="68.360000" r="0.175000" /> 
</g>
<g style="fill:#000000; fill-opacity:1.000000; stroke:none;">
<circle cx="210.440000" cy="70.900000" r="0.175000" /> 
</g>
<g style="fill:#000000; fill-opacity:1.000000; stroke:none;">
<circle cx="210.440000" cy="73.440000" r="0.175000" /> 
</g>
<g style="fill:#000000; fill-opacity:1.000000; stroke:none;">
<circle cx="210.440000" cy="75.980000" r="0.175000" /> 
</g>
<g style="fill:#000000; fill-opacity:1.000000; stroke:none;">
<circle cx="210.440000" cy="78.520000" r="0.175000" /> 
</g>
<g style="fill:#000000; fill-opacity:1.000000; stroke:none;">
<circle cx="210.440000" cy="81.060000" r="0.175000" /> 
</g>
<g style="fill:#000000; fill-opacity:1.000000; stroke:none;">
<circle cx="210.440000" cy="83.600000" r="0.175000" /> 
</g>
<g style="fill:#000000; fill-opacity:1.000000; stroke:none;">
<circle cx="210.440000" cy="86.140000" r="0.175000" /> 
</g>
<g style="fill:#000000; fill-opacity:1.000000; stroke:none;">
<circle cx="210.440000" cy="88.680000" r="0.175000" /> 
</g>
<g style="fill:#000000; fill-opacity:1.000000; stroke:none;">
<circle cx="195.200000" cy="58.200000" r="0.175000" /> 
</g>
<g style="fill:#000000; fill-opacity:1.000000; stroke:none;">
<circle cx="210.440000" cy="58.200000" r="0.175000" /> 
</g>
<g style="fill:#000000; fill-opacity:1.000000; stroke:none;">
<circle cx="257.750000" cy="109.500000" r="0.175000" /> 
</g>
<g style="fill:#000000; fill-opacity:1.000000; stroke:none;">
<circle cx="255.210000" cy="109.500000" r="0.175000" /> 
</g>
<g style="fill:#000000; fill-opacity:1.000000; stroke:none;">
<circle cx="252.670000" cy="109.500000" r="0.175000" /> 
</g>
<g style="fill:#000000; fill-opacity:1.000000; stroke:none;">
<circle cx="250.130000" cy="109.500000" r="0.175000" /> 
</g>
<g style="fill:#000000; fill-opacity:1.000000; stroke:none;">
<circle cx="247.590000" cy="109.500000" r="0.175000" /> 
</g>
<g style="fill:#000000; fill-opacity:1.000000; stroke:none;">
<circle cx="244.842100" cy="104.834600" r="0.175000" /> 
</g>
<g style="fill:#000000; fill-opacity:1.000000; stroke:none;">
<circle cx="251.842100" cy="104.834600" r="0.175000" /> 
</g>
<g style="fill:none; 
stroke:#000000; stroke-width:0.900000; stroke-opacity:1; 
stroke-linecap:round; stroke-linejoin:round;">
<path d="M254.342100 107.134600
L254.742100 107.134600
" />
<path d="M253.242100 102.534600
L253.642100 102.534600
" />
<path d="M249.242100 102.534600
L249.642100 102.534600
" />
<path d="M246.242100 102.534600
L246.642100 102.534600
" />
</g>
<g style="fill:#000000; fill-opacity:1.000000; stroke:none;">
<circle cx="320.734446" cy="79.500000" r="0.175000" /> 
</g>
<g style="fill:#000000; fill-opacity:1.000000; stroke:none;">
<circle cx="320.234446" cy="74.350000" r="0.175000" /> 
</g>
<g style="fill:#000000; fill-opacity:1.000000; stroke:none;">
<circle cx="315.234446" cy="85.400000" r="0.175000" /> 
</g>
<g style="fill:#000000; fill-opacity:1.000000; stroke:none;">
<circle cx="315.234446" cy="79.500000" r="0.175000" /> 
</g>
<g style="fill:#000000; fill-opacity:1.000000; stroke:none;">
<circle cx="310.234446" cy="83.300000" r="0.175000" /> 
</g>
<g style="fill:#000000; fill-opacity:1.000000; stroke:none;">
<circle cx="309.734446" cy="79.500000" r="0.175000" /> 
</g>
<g style="fill:#000000; fill-opacity:1.000000; stroke:none;">
<circle cx="281.000000" cy="69.000000" r="0.175000" /> 
</g>
<g style="fill:#000000; fill-opacity:1.000000; stroke:none;">
<circle cx="280.500000" cy="63.850000" r="0.175000" /> 
</g>
<g style="fill:#000000; fill-opacity:1.000000; stroke:none;">
<circle cx="275.500000" cy="74.900000" r="0.175000" /> 
</g>
<g style="fill:#000000; fill-opacity:1.000000; stroke:none;">
<circle cx="275.500000" cy="69.000000" r="0.175000" /> 
</g>
<g style="fill:#000000; fill-opacity:1.000000; stroke:none;">
<circle cx="270.500000" cy="72.800000" r="0.175000" /> 
</g>
<g style="fill:#000000; fill-opacity:1.000000; stroke:none;">
<circle cx="270.000000" cy="69.000000" r="0.175000" /> 
</g>
<g style="fill:#000000; fill-opacity:1.000000; stroke:none;">
<circle cx="194.799735" cy="136.957808" r="0.175000" /> 
</g>
<g style="fill:#000000; fill-opacity:1.000000; stroke:none;">
<circle cx="195.570309" cy="131.841295" r="0.175000" /> 
</g>
<g style="fill:#000000; fill-opacity:1.000000; stroke:none;">
<circle cx="188.027346" cy="141.338988" r="0.175000" /> 
</g>
<g style="fill:#000000; fill-opacity:1.000000; stroke:none;">
<circle cx="189.465673" cy="135.616994" r="0.175000" /> 
</g>
<g style="fill:#000000; fill-opacity:1.000000; stroke:none;">
<circle cx="183.690145" cy="138.083425" r="0.175000" /> 
</g>
<g style="fill:#000000; fill-opacity:1.000000; stroke:none;">
<circle cx="184.131611" cy="134.276180" r="0.175000" /> 
</g>
<g style="fill:#000000; fill-opacity:1.000000; stroke:none;">
<circle cx="103.085287" cy="100.498950" r="0.175000" /> 
</g>
<g style="fill:#000000; fill-opacity:1.000000; stroke:none;">
<circle cx="101.750000" cy="95.500000" r="0.175000" /> 
</g>
<g style="fill:#000000; fill-opacity:1.000000; stroke:none;">
<circle cx="98.623936" cy="107.218797" r="0.175000" /> 
</g>
<g style="fill:#000000; fill-opacity:1.000000; stroke:none;">
<circle cx="97.659297" cy="101.398190" r="0.175000" /> 
</g>
<g style="fill:#000000; fill-opacity:1.000000; stroke:none;">
<circle cx="93.347872" cy="105.964547" r="0.175000" /> 
</g>
<g style="fill:#000000; fill-opacity:1.000000; stroke:none;">
<circle cx="92.233307" cy="102.297430" r="0.175000" /> 
</g> 
</svg>
