999
FreeCAD v1.0 39319 (Git)
  0
SECTION
  2
HEADER
  9
$ACADVER
  1
AC1014
  9
$ACADMAINTVER
 70
     9
  9
$DWGCODEPAGE
  3
ANSI_1252
  9
$TEXTSTYLE
  7
STANDARD
  9
$DIMSTYLE
  2
STANDARD
  9
$DIMTXSTY
  7
STANDARD
  9
$CMLSTYLE
  2
STANDARD
  9
$LUNITS
 70
2
  9
$INSUNITS
 70
4
  9
$PEXTMAX
 10
50
 20
50
 30
50
  9
$PEXTMIN
 10
0
 20
0
 30
0
  9
$HANDSEED
  5
FFFF
  0
ENDSEC
  0
SECTION
  2
CLASSES
  0
CLASS
  1
ACDBDICTIONARYWDFLT
  2
AcDbDictionaryWithDefault
  3
ObjectDBX Classes
 90
        0
280
     0
281
     0
  0
CLASS
  1
XRECORD
  2
AcDbXrecord
  3
ObjectDBX Classes
 90
        0
280
     0
281
     0
  0
CLASS
  1
LWPOLYLINE
  2
AcDbPolyline
  3
ObjectDBX Classes
 90
        0
280
     0
281
     1
  0
ENDSEC
  0
SECTION
  2
TABLES
  0
TABLE
  2
VPORT
  5
20
330
0
100
AcDbSymbolTable
 70
     1
  0
VPORT
  5
21
330
20
100
AcDbSymbolTableRecord
100
AcDbViewportTableRecord
  2
*ACTIVE
 70
     0
  0
ENDTAB
  0
TABLE
  2
LTYPE
  5
22
330
0
100
AcDbSymbolTable
 70
     1
  0
LTYPE
  5
23
330
21
100
AcDbSymbolTableRecord
100
AcDbLinetypeTableRecord
  2
BYBLOCK
 70
     0
  3

 72
    65
 73
     0
 40
0.0
  0
LTYPE
  5
24
330
21
100
AcDbSymbolTableRecord
100
AcDbLinetypeTableRecord
  2
BYLAYER
 70
     0
  3

 72
    65
 73
     0
 40
0.0
  0
LTYPE
  5
25
330
21
100
AcDbSymbolTableRecord
100
AcDbLinetypeTableRecord
  2
CONTINUOUS
 70
     0
  3
Solid line
 72
    65
 73
     0
 40
0.0
  0
ENDTAB
  0
TABLE
  2
LAYER
  5
A76
330
0
100
AcDbSymbolTable
 70
3
  0
LAYER
  5
A77
330
A76
100
AcDbSymbolTableRecord
100
AcDbLayerTableRecord
  2
0
 70
   0
 62
   7
  6
CONTINUOUS
  0
LAYER
  5
A78
330
A76
100
AcDbSymbolTableRecord
100
AcDbLayerTableRecord
  2
none
 70
    0
 62
    7
  6
CONTINUOUS
  0
LAYER
  5
A79
330
A76
100
AcDbSymbolTableRecord
100
AcDbLayerTableRecord
  2
Sketch675
 70
    0
 62
    7
  6
CONTINUOUS
  0
ENDTAB
  0
TABLE
  2
STYLE
  5
70
330
0
100
AcDbSymbolTable
 70
     2
  0
STYLE
  5
71
330
70
100
AcDbSymbolTableRecord
100
AcDbTextStyleTableRecord
  2
STANDARD
 70
     0
 40
0.0
 41
1.0
 50
0.0
 71
     0
 42
2.5
  3
arial.ttf
  4

  0
STYLE
  5
72
330
70
100
AcDbSymbolTableRecord
100
AcDbTextStyleTableRecord
  2
ANNOTATIVE
 70
     0
 40
0.0
 41
1.0
 50
0.0
 71
     0
 42
2.5
  3
arial.ttf
  4

  0
ENDTAB
  0
TABLE
  2
VIEW
  5
73
330
0
100
AcDbSymbolTable
 70
     0
  0
ENDTAB
  0
TABLE
  2
UCS
  5
74
330
0
100
AcDbSymbolTable
 70
     0
  0
ENDTAB
  0
TABLE
  2
APPID
  5
75
330
0
100
AcDbSymbolTable
 70
     2
  0
APPID
  5
76
330
75
100
AcDbSymbolTableRecord
100
AcDbRegAppTableRecord
  2
ACAD
 70
     0
  0
APPID
  5
77
330
75
100
AcDbSymbolTableRecord
100
AcDbRegAppTableRecord
  2
ACADANNOTATIVE
 70
     0
  0
ENDTAB
  0
TABLE
  2
DIMSTYLE
  5
78
330
0
100
AcDbSymbolTable
 70
     2
  0
DIMSTYLE
105
79
330
78
100
AcDbSymbolTableRecord
100
AcDbDimStyleTableRecord
  2
STANDARD
 70
     0
  3

  4

  5

  6

  7

 40
0.0
 41
2.5
 42
0.625
 43
3.75
 44
1.25
 45
0.0
 46
0.0
 47
0.0
 48
0.0
140
2.5
141
2.5
142
0.0
143
0.03937007874016
144
1.0
145
0.0
146
1.0
147
0.625
 71
     0
 72
     0
 73
     0
 74
     0
 75
     0
 76
     0
 77
     1
 78
     8
170
     0
171
     3
172
     1
173
     0
174
     0
175
     0
176
     0
177
     0
178
     0
270
     2
271
     2
272
     2
273
     2
274
     3
340
71
275
     0
280
     0
281
     0
282
     0
283
     0
284
     8
285
     0
286
     0
287
     3
288
     0
  0
ENDTAB
  0
TABLE
  2
BLOCK_RECORD
  5
A01
330
0
100
AcDbSymbolTable
  70
5
  0
BLOCK_RECORD
  5
A02
330
A01
100
AcDbSymbolTableRecord
100
AcDbBlockTableRecord
  2
*MODEL_SPACE
  0
BLOCK_RECORD
  5
A03
330
A01
100
AcDbSymbolTableRecord
100
AcDbBlockTableRecord
  2
*PAPER_SPACE
  0
ENDTAB
  0
ENDSEC
  0
SECTION
  2
BLOCKS
  0
BLOCK
  5
A04
330
A02
100
AcDbEntity
  8
0
100
AcDbBlockBegin
  2
*MODEL_SPACE
 70
   0
 10
0
 20
0
 30
0
  3
*MODEL_SPACE
  1
 
  0
ENDBLK
  5
A05
330
A02
100
AcDbEntity
  8
0
100
AcDbBlockEnd
  0
BLOCK
  5
A06
330
A03
100
AcDbEntity
 67
1
  8
0
100
AcDbBlockBegin
  2
*PAPER_SPACE
 70
   0
 10
0
 20
0
 30
0
  3
*PAPER_SPACE
  1
 
  0
ENDBLK
  5
A07
330
A03
100
AcDbEntity
 67
    1
  8
0
100
AcDbBlockEnd
  0
ENDSEC
  0
SECTION
  2
ENTITIES
  0
ARC
  5
A08
330
A02
100
AcDbEntity
  8
Sketch675
100
AcDbCircle
 10
14.079000000
 20
45.325000000
 30
0.000000000
 40
2.000000000
100
AcDbArc
 50
90.000000000
 51
180.000000000
  0
LINE
  5
A09
330
A02
100
AcDbEntity
  8
Sketch675
100
AcDbLine
 10
12.079000000
 20
45.325000000
 30
0.000000000
 11
12.079000000
 21
-33.445000000
 31
0.000000000
  0
LINE
  5
A0A
330
A02
100
AcDbEntity
  8
Sketch675
100
AcDbLine
 10
12.079000000
 20
-33.445000000
 30
0.000000000
 11
3.095760473
 21
-40.263016363
 31
0.000000000
  0
ARC
  5
A0B
330
A02
100
AcDbEntity
  8
Sketch675
100
AcDbCircle
 10
4.304887415
 20
-41.856130307
 30
0.000000000
 40
2.000000000
100
AcDbArc
 50
127.197436117
 51
-147.595661741
  0
LINE
  5
A0C
330
A02
100
AcDbEntity
  8
Sketch675
100
AcDbLine
 10
2.616312711
 20
-42.927911754
 30
0.000000000
 11
11.109577972
 21
-56.308916732
 31
0.000000000
  0
ARC
  5
A0D
330
A02
100
AcDbEntity
  8
Sketch675
100
AcDbCircle
 10
12.798152676
 20
-55.237135285
 30
0.000000000
 40
2.000000000
100
AcDbArc
 50
-147.595661741
 51
-60.464198542
  0
LINE
  5
A0E
330
A02
100
AcDbEntity
  8
Sketch675
100
AcDbLine
 10
13.784087293
 20
-56.977230952
 30
0.000000000
 11
36.379000000
 21
-44.175000000
 31
0.000000000
  0
LINE
  5
A0F
330
A02
100
AcDbEntity
  8
Sketch675
100
AcDbLine
 10
36.379000000
 20
-44.175000000
 30
0.000000000
 11
51.579000000
 21
-40.375000000
 31
0.000000000
  0
LINE
  5
A10
330
A02
100
AcDbEntity
  8
Sketch675
100
AcDbLine
 10
51.579000000
 20
-40.375000000
 30
0.000000000
 11
55.000000000
 21
-40.375000000
 31
0.000000000
  0
LINE
  5
A11
330
A02
100
AcDbEntity
  8
Sketch675
100
AcDbLine
 10
55.000000000
 20
-40.375000000
 30
0.000000000
 11
55.000000000
 21
-59.915000000
 31
0.000000000
  0
LINE
  5
A12
330
A02
100
AcDbEntity
  8
Sketch675
100
AcDbLine
 10
0.000000000
 20
-59.915000000
 30
0.000000000
 11
55.000000000
 21
-59.915000000
 31
0.000000000
  0
LINE
  5
A13
330
A02
100
AcDbEntity
  8
Sketch675
100
AcDbLine
 10
0.000000000
 20
-59.915000000
 30
0.000000000
 11
-55.000000000
 21
-59.915000000
 31
0.000000000
  0
LINE
  5
A14
330
A02
100
AcDbEntity
  8
Sketch675
100
AcDbLine
 10
-55.000000000
 20
-40.375000000
 30
0.000000000
 11
-55.000000000
 21
-59.915000000
 31
0.000000000
  0
LINE
  5
A15
330
A02
100
AcDbEntity
  8
Sketch675
100
AcDbLine
 10
-51.579000000
 20
-40.375000000
 30
0.000000000
 11
-55.000000000
 21
-40.375000000
 31
0.000000000
  0
LINE
  5
A16
330
A02
100
AcDbEntity
  8
Sketch675
100
AcDbLine
 10
-36.379000000
 20
-44.175000000
 30
0.000000000
 11
-51.579000000
 21
-40.375000000
 31
0.000000000
  0
LINE
  5
A17
330
A02
100
AcDbEntity
  8
Sketch675
100
AcDbLine
 10
-13.784087293
 20
-56.977230952
 30
0.000000000
 11
-36.379000000
 21
-44.175000000
 31
0.000000000
  0
ARC
  5
A18
330
A02
100
AcDbEntity
  8
Sketch675
100
AcDbCircle
 10
-12.798152676
 20
-55.237135285
 30
0.000000000
 40
2.000000000
100
AcDbArc
 50
-119.535801458
 51
-32.404338259
  0
LINE
  5
A19
330
A02
100
AcDbEntity
  8
Sketch675
100
AcDbLine
 10
-2.616312711
 20
-42.927911754
 30
0.000000000
 11
-11.109577972
 21
-56.308916732
 31
0.000000000
  0
ARC
  5
A1A
330
A02
100
AcDbEntity
  8
Sketch675
100
AcDbCircle
 10
-4.304887415
 20
-41.856130307
 30
0.000000000
 40
2.000000000
100
AcDbArc
 50
-32.404338259
 51
52.802563883
  0
LINE
  5
A1B
330
A02
100
AcDbEntity
  8
Sketch675
100
AcDbLine
 10
-12.079000000
 20
-33.445000000
 30
0.000000000
 11
-3.095760473
 21
-40.263016363
 31
0.000000000
  0
LINE
  5
A1C
330
A02
100
AcDbEntity
  8
Sketch675
100
AcDbLine
 10
-12.079000000
 20
45.325000000
 30
0.000000000
 11
-12.079000000
 21
-33.445000000
 31
0.000000000
  0
ARC
  5
A1D
330
A02
100
AcDbEntity
  8
Sketch675
100
AcDbCircle
 10
-14.079000000
 20
45.325000000
 30
0.000000000
 40
2.000000000
100
AcDbArc
 50
0.000000000
 51
90.000000000
  0
LINE
  5
A1E
330
A02
100
AcDbEntity
  8
Sketch675
100
AcDbLine
 10
-14.079000000
 20
47.325000000
 30
0.000000000
 11
-47.079000000
 21
47.325000000
 31
0.000000000
  0
LINE
  5
A1F
330
A02
100
AcDbEntity
  8
Sketch675
100
AcDbLine
 10
-47.079000000
 20
47.325000000
 30
0.000000000
 11
-47.079000000
 21
54.425000000
 31
0.000000000
  0
LINE
  5
A20
330
A02
100
AcDbEntity
  8
Sketch675
100
AcDbLine
 10
-47.079000000
 20
54.425000000
 30
0.000000000
 11
0.000000000
 21
54.425000000
 31
0.000000000
  0
LINE
  5
A21
330
A02
100
AcDbEntity
  8
Sketch675
100
AcDbLine
 10
47.079000000
 20
54.425000000
 30
0.000000000
 11
0.000000000
 21
54.425000000
 31
0.000000000
  0
LINE
  5
A22
330
A02
100
AcDbEntity
  8
Sketch675
100
AcDbLine
 10
47.079000000
 20
47.325000000
 30
0.000000000
 11
47.079000000
 21
54.425000000
 31
0.000000000
  0
LINE
  5
A23
330
A02
100
AcDbEntity
  8
Sketch675
100
AcDbLine
 10
14.079000000
 20
47.325000000
 30
0.000000000
 11
47.079000000
 21
47.325000000
 31
0.000000000
  0
LINE
  5
A24
330
A02
100
AcDbEntity
  8
Sketch675
100
AcDbLine
 10
60.000000000
 20
-40.375000000
 30
0.000000000
 11
70.590000000
 21
-40.375000000
 31
0.000000000
  0
ARC
  5
A25
330
A02
100
AcDbEntity
  8
Sketch675
100
AcDbCircle
 10
70.585610568
 20
-34.375001606
 30
0.000000000
 40
6.000000000
100
AcDbArc
 50
-89.958084006
 51
-60.255118703
  0
LINE
  5
A26
330
A02
100
AcDbEntity
  8
Sketch675
100
AcDbLine
 10
73.562444198
 20
-39.584460458
 30
0.000000000
 11
93.879000000
 21
-27.975000000
 31
0.000000000
  0
LINE
  5
A27
330
A02
100
AcDbEntity
  8
Sketch675
100
AcDbLine
 10
93.879000000
 20
-27.975000000
 30
0.000000000
 11
102.179000000
 21
-27.975000000
 31
0.000000000
  0
LINE
  5
A28
330
A02
100
AcDbEntity
  8
Sketch675
100
AcDbLine
 10
102.179000000
 20
-27.975000000
 30
0.000000000
 11
102.179000000
 21
-37.635000000
 31
0.000000000
  0
LINE
  5
A29
330
A02
100
AcDbEntity
  8
Sketch675
100
AcDbLine
 10
99.179000000
 20
-37.635000000
 30
0.000000000
 11
102.179000000
 21
-37.635000000
 31
0.000000000
  0
LINE
  5
A2A
330
A02
100
AcDbEntity
  8
Sketch675
100
AcDbLine
 10
71.000000000
 20
-59.915000000
 30
0.000000000
 11
99.179000000
 21
-37.635000000
 31
0.000000000
  0
LINE
  5
A2B
330
A02
100
AcDbEntity
  8
Sketch675
100
AcDbLine
 10
60.000000000
 20
-59.915000000
 30
0.000000000
 11
71.000000000
 21
-59.915000000
 31
0.000000000
  0
LINE
  5
A2C
330
A02
100
AcDbEntity
  8
Sketch675
100
AcDbLine
 10
60.000000000
 20
-40.375000000
 30
0.000000000
 11
60.000000000
 21
-59.915000000
 31
0.000000000
  0
LINE
  5
A2D
330
A02
100
AcDbEntity
  8
Sketch675
100
AcDbLine
 10
107.179000000
 20
-27.975000000
 30
0.000000000
 11
110.479000000
 21
-27.975000000
 31
0.000000000
  0
LINE
  5
A2E
330
A02
100
AcDbEntity
  8
Sketch675
100
AcDbLine
 10
110.479000000
 20
-27.975000000
 30
0.000000000
 11
152.933171494
 21
-34.804591697
 31
0.000000000
  0
ARC
  5
A2F
330
A02
100
AcDbEntity
  8
Sketch675
100
AcDbCircle
 10
153.250826922
 20
-32.829979069
 30
0.000000000
 40
2.000000000
100
AcDbArc
 50
-99.138859101
 51
-12.518659992
  0
LINE
  5
A30
330
A02
100
AcDbEntity
  8
Sketch675
100
AcDbLine
 10
155.203277853
 20
-33.263494191
 30
0.000000000
 11
167.465253072
 21
21.961580401
 31
0.000000000
  0
ARC
  5
A31
330
A02
100
AcDbEntity
  8
Sketch675
100
AcDbCircle
 10
165.512802141
 20
22.395095523
 30
0.000000000
 40
2.000000000
100
AcDbArc
 50
-12.518659992
 51
74.808191525
  0
LINE
  5
A32
330
A02
100
AcDbEntity
  8
Sketch675
100
AcDbLine
 10
166.036904558
 20
24.325203462
 30
0.000000000
 11
129.579000000
 21
34.225000000
 31
0.000000000
  0
LINE
  5
A33
330
A02
100
AcDbEntity
  8
Sketch675
100
AcDbLine
 10
129.579000000
 20
34.225000000
 30
0.000000000
 11
120.636359313
 21
43.167640687
 31
0.000000000
  0
ARC
  5
A34
330
A02
100
AcDbEntity
  8
Sketch675
100
AcDbCircle
 10
116.393718626
 20
38.925000000
 30
0.000000000
 40
6.000000000
100
AcDbArc
 50
45.000000000
 51
90.000000000
  0
LINE
  5
A35
330
A02
100
AcDbEntity
  8
Sketch675
100
AcDbLine
 10
102.049000000
 20
44.925000000
 30
0.000000000
 11
116.393718626
 21
44.925000000
 31
0.000000000
  0
LINE
  5
A36
330
A02
100
AcDbEntity
  8
Sketch675
100
AcDbLine
 10
102.049000000
 20
44.925000000
 30
0.000000000
 11
102.049000000
 21
50.425000000
 31
0.000000000
  0
ARC
  5
A37
330
A02
100
AcDbEntity
  8
Sketch675
100
AcDbCircle
 10
100.049000000
 20
50.425000000
 30
0.000000000
 40
2.000000000
100
AcDbArc
 50
0.000000000
 51
90.000000000
  0
LINE
  5
A38
330
A02
100
AcDbEntity
  8
Sketch675
100
AcDbLine
 10
100.049000000
 20
52.425000000
 30
0.000000000
 11
79.279000000
 21
52.425000000
 31
0.000000000
  0
ARC
  5
A39
330
A02
100
AcDbEntity
  8
Sketch675
100
AcDbCircle
 10
79.279000000
 20
50.425000000
 30
0.000000000
 40
2.000000000
100
AcDbArc
 50
90.000000000
 51
180.000000000
  0
LINE
  5
A3A
330
A02
100
AcDbEntity
  8
Sketch675
100
AcDbLine
 10
77.279000000
 20
50.425000000
 30
0.000000000
 11
77.279000000
 21
47.325000000
 31
0.000000000
  0
LINE
  5
A3B
330
A02
100
AcDbEntity
  8
Sketch675
100
AcDbLine
 10
70.079000000
 20
47.325000000
 30
0.000000000
 11
77.279000000
 21
47.325000000
 31
0.000000000
  0
LINE
  5
A3C
330
A02
100
AcDbEntity
  8
Sketch675
100
AcDbLine
 10
70.079000000
 20
54.425000000
 30
0.000000000
 11
70.079000000
 21
47.325000000
 31
0.000000000
  0
LINE
  5
A3D
330
A02
100
AcDbEntity
  8
Sketch675
100
AcDbLine
 10
166.179000000
 20
54.425000000
 30
0.000000000
 11
70.079000000
 21
54.425000000
 31
0.000000000
  0
ARC
  5
A3E
330
A02
100
AcDbEntity
  8
Sketch675
100
AcDbCircle
 10
166.179000000
 20
56.425000000
 30
0.000000000
 40
2.000000000
100
AcDbArc
 50
-90.000000000
 51
0.000005731
  0
LINE
  5
A3F
330
A02
100
AcDbEntity
  8
Sketch675
100
AcDbLine
 10
168.179000000
 20
57.925000000
 30
0.000000000
 11
168.179000000
 21
56.425000200
 31
0.000000000
  0
LINE
  5
A40
330
A02
100
AcDbEntity
  8
Sketch675
100
AcDbLine
 10
168.179000000
 20
57.925000000
 30
0.000000000
 11
168.179000000
 21
56.425000200
 31
0.000000000
  0
LINE
  5
A41
330
A02
100
AcDbEntity
  8
Sketch675
100
AcDbLine
 10
168.179000000
 20
57.925000000
 30
0.000000000
 11
168.179000000
 21
56.425000200
 31
0.000000000
  0
ARC
  5
A42
330
A02
100
AcDbEntity
  8
Sketch675
100
AcDbCircle
 10
166.179000000
 20
57.925000000
 30
0.000000000
 40
2.000000000
100
AcDbArc
 50
0.000000000
 51
90.000000000
  0
LINE
  5
A43
330
A02
100
AcDbEntity
  8
Sketch675
100
AcDbLine
 10
0.000000000
 20
59.925000000
 30
0.000000000
 11
166.179000000
 21
59.925000000
 31
0.000000000
  0
LINE
  5
A44
330
A02
100
AcDbEntity
  8
Sketch675
100
AcDbLine
 10
0.000000000
 20
59.925000000
 30
0.000000000
 11
-166.179000000
 21
59.925000000
 31
0.000000000
  0
ARC
  5
A45
330
A02
100
AcDbEntity
  8
Sketch675
100
AcDbCircle
 10
-166.179000000
 20
57.925000000
 30
0.000000000
 40
2.000000000
100
AcDbArc
 50
90.000000000
 51
180.000000000
  0
LINE
  5
A46
330
A02
100
AcDbEntity
  8
Sketch675
100
AcDbLine
 10
-168.179000000
 20
57.925000000
 30
0.000000000
 11
-168.179000000
 21
56.425000200
 31
0.000000000
  0
ARC
  5
A47
330
A02
100
AcDbEntity
  8
Sketch675
100
AcDbCircle
 10
-166.179000000
 20
56.425000000
 30
0.000000000
 40
2.000000000
100
AcDbArc
 50
179.999994269
 51
-90.000000000
  0
LINE
  5
A48
330
A02
100
AcDbEntity
  8
Sketch675
100
AcDbLine
 10
-166.179000000
 20
54.425000000
 30
0.000000000
 11
-70.079000000
 21
54.425000000
 31
0.000000000
  0
LINE
  5
A49
330
A02
100
AcDbEntity
  8
Sketch675
100
AcDbLine
 10
-70.079000000
 20
54.425000000
 30
0.000000000
 11
-70.079000000
 21
47.325000000
 31
0.000000000
  0
LINE
  5
A4A
330
A02
100
AcDbEntity
  8
Sketch675
100
AcDbLine
 10
-70.079000000
 20
47.325000000
 30
0.000000000
 11
-77.278999000
 21
47.325001000
 31
0.000000000
  0
LINE
  5
A4B
330
A02
100
AcDbEntity
  8
Sketch675
100
AcDbLine
 10
-77.278999759
 20
50.425000379
 30
0.000000000
 11
-77.278999000
 21
47.325001000
 31
0.000000000
  0
ARC
  5
A4C
330
A02
100
AcDbEntity
  8
Sketch675
100
AcDbCircle
 10
-79.278999759
 20
50.424999889
 30
0.000000000
 40
2.000000000
100
AcDbArc
 50
0.000014028
 51
89.999999726
  0
LINE
  5
A4D
330
A02
100
AcDbEntity
  8
Sketch675
100
AcDbLine
 10
-100.048999992
 20
52.424999989
 30
0.000000000
 11
-79.278999749
 21
52.424999889
 31
0.000000000
  0
ARC
  5
A4E
330
A02
100
AcDbEntity
  8
Sketch675
100
AcDbCircle
 10
-100.049000001
 20
50.424999989
 30
0.000000000
 40
2.000000000
100
AcDbArc
 50
89.999999726
 51
-179.999999989
  0
LINE
  5
A4F
330
A02
100
AcDbEntity
  8
Sketch675
100
AcDbLine
 10
-102.049000000
 20
44.925000000
 30
0.000000000
 11
-102.049000001
 21
50.424999988
 31
0.000000000
  0
LINE
  5
A50
330
A02
100
AcDbEntity
  8
Sketch675
100
AcDbLine
 10
-102.049000000
 20
44.925000000
 30
0.000000000
 11
-116.393718626
 21
44.925000000
 31
0.000000000
  0
ARC
  5
A51
330
A02
100
AcDbEntity
  8
Sketch675
100
AcDbCircle
 10
-116.393718626
 20
38.925000000
 30
0.000000000
 40
6.000000000
100
AcDbArc
 50
90.000000000
 51
135.000000000
  0
LINE
  5
A52
330
A02
100
AcDbEntity
  8
Sketch675
100
AcDbLine
 10
-129.579000000
 20
34.225000000
 30
0.000000000
 11
-120.636359313
 21
43.167640687
 31
0.000000000
  0
LINE
  5
A53
330
A02
100
AcDbEntity
  8
Sketch675
100
AcDbLine
 10
-166.036904558
 20
24.325203462
 30
0.000000000
 11
-129.579000000
 21
34.225000000
 31
0.000000000
  0
ARC
  5
A54
330
A02
100
AcDbEntity
  8
Sketch675
100
AcDbCircle
 10
-165.512802141
 20
22.395095523
 30
0.000000000
 40
2.000000000
100
AcDbArc
 50
105.191808475
 51
-167.481340008
  0
LINE
  5
A55
330
A02
100
AcDbEntity
  8
Sketch675
100
AcDbLine
 10
-155.203277853
 20
-33.263494191
 30
0.000000000
 11
-167.465253072
 21
21.961580401
 31
0.000000000
  0
ARC
  5
A56
330
A02
100
AcDbEntity
  8
Sketch675
100
AcDbCircle
 10
-153.250826922
 20
-32.829979069
 30
0.000000000
 40
2.000000000
100
AcDbArc
 50
-167.481340008
 51
-80.861140899
  0
LINE
  5
A57
330
A02
100
AcDbEntity
  8
Sketch675
100
AcDbLine
 10
-110.479000000
 20
-27.975000000
 30
0.000000000
 11
-152.933171494
 21
-34.804591697
 31
0.000000000
  0
LINE
  5
A58
330
A02
100
AcDbEntity
  8
Sketch675
100
AcDbLine
 10
-107.179000000
 20
-27.975000000
 30
0.000000000
 11
-110.479000000
 21
-27.975000000
 31
0.000000000
  0
LINE
  5
A59
330
A02
100
AcDbEntity
  8
Sketch675
100
AcDbLine
 10
-107.179000000
 20
-27.975000000
 30
0.000000000
 11
-107.179000000
 21
-37.635000000
 31
0.000000000
  0
LINE
  5
A5A
330
A02
100
AcDbEntity
  8
Sketch675
100
AcDbLine
 10
-107.179000000
 20
-37.635000000
 30
0.000000000
 11
-166.279000000
 21
-37.635000000
 31
0.000000000
  0
ARC
  5
A5B
330
A02
100
AcDbEntity
  8
Sketch675
100
AcDbCircle
 10
-166.279000000
 20
-39.635000000
 30
0.000000000
 40
2.000000000
100
AcDbArc
 50
90.000000000
 51
180.000000000
  0
LINE
  5
A5C
330
A02
100
AcDbEntity
  8
Sketch675
100
AcDbLine
 10
-168.279000000
 20
-39.635000000
 30
0.000000000
 11
-168.279000000
 21
-62.915000000
 31
0.000000000
  0
ARC
  5
A5D
330
A02
100
AcDbEntity
  8
Sketch675
100
AcDbCircle
 10
-166.279000000
 20
-62.915000000
 30
0.000000000
 40
2.000000000
100
AcDbArc
 50
180.000000000
 51
-90.000000000
  0
LINE
  5
A5E
330
A02
100
AcDbEntity
  8
Sketch675
100
AcDbLine
 10
-166.279000000
 20
-64.915000000
 30
0.000000000
 11
0.000000000
 21
-64.915000000
 31
0.000000000
  0
LINE
  5
A5F
330
A02
100
AcDbEntity
  8
Sketch675
100
AcDbLine
 10
166.279000000
 20
-64.915000000
 30
0.000000000
 11
0.000000000
 21
-64.915000000
 31
0.000000000
  0
ARC
  5
A60
330
A02
100
AcDbEntity
  8
Sketch675
100
AcDbCircle
 10
166.279000000
 20
-62.915000000
 30
0.000000000
 40
2.000000000
100
AcDbArc
 50
-90.000000000
 51
0.000000000
  0
LINE
  5
A61
330
A02
100
AcDbEntity
  8
Sketch675
100
AcDbLine
 10
168.279000000
 20
-39.635000000
 30
0.000000000
 11
168.279000000
 21
-62.915000000
 31
0.000000000
  0
ARC
  5
A62
330
A02
100
AcDbEntity
  8
Sketch675
100
AcDbCircle
 10
166.279000000
 20
-39.635000000
 30
0.000000000
 40
2.000000000
100
AcDbArc
 50
0.000000000
 51
90.000000000
  0
LINE
  5
A63
330
A02
100
AcDbEntity
  8
Sketch675
100
AcDbLine
 10
107.179000000
 20
-37.635000000
 30
0.000000000
 11
166.279000000
 21
-37.635000000
 31
0.000000000
  0
LINE
  5
A64
330
A02
100
AcDbEntity
  8
Sketch675
100
AcDbLine
 10
107.179000000
 20
-27.975000000
 30
0.000000000
 11
107.179000000
 21
-37.635000000
 31
0.000000000
  0
LINE
  5
A65
330
A02
100
AcDbEntity
  8
Sketch675
100
AcDbLine
 10
65.079000000
 20
47.325000000
 30
0.000000000
 11
65.079000000
 21
54.425000000
 31
0.000000000
  0
LINE
  5
A66
330
A02
100
AcDbEntity
  8
Sketch675
100
AcDbLine
 10
65.079000000
 20
54.425000000
 30
0.000000000
 11
52.079000000
 21
54.425000000
 31
0.000000000
  0
LINE
  5
A67
330
A02
100
AcDbEntity
  8
Sketch675
100
AcDbLine
 10
52.079000000
 20
54.425000000
 30
0.000000000
 11
52.079000000
 21
47.325000000
 31
0.000000000
  0
LINE
  5
A68
330
A02
100
AcDbEntity
  8
Sketch675
100
AcDbLine
 10
52.079000000
 20
47.325000000
 30
0.000000000
 11
65.079000000
 21
47.325000000
 31
0.000000000
  0
LINE
  5
A69
330
A02
100
AcDbEntity
  8
Sketch675
100
AcDbLine
 10
-60.000000000
 20
-40.375000000
 30
0.000000000
 11
-70.590000000
 21
-40.375000000
 31
0.000000000
  0
ARC
  5
A6A
330
A02
100
AcDbEntity
  8
Sketch675
100
AcDbCircle
 10
-70.585610568
 20
-34.375001606
 30
0.000000000
 40
6.000000000
100
AcDbArc
 50
-119.744880999
 51
-90.041915994
  0
LINE
  5
A6B
330
A02
100
AcDbEntity
  8
Sketch675
100
AcDbLine
 10
-73.562444171
 20
-39.584460474
 30
0.000000000
 11
-93.879000000
 21
-27.975000140
 31
0.000000000
  0
LINE
  5
A6C
330
A02
100
AcDbEntity
  8
Sketch675
100
AcDbLine
 10
-93.879000000
 20
-27.975000140
 30
0.000000000
 11
-102.179000000
 21
-27.975000140
 31
0.000000000
  0
LINE
  5
A6D
330
A02
100
AcDbEntity
  8
Sketch675
100
AcDbLine
 10
-102.179000000
 20
-27.975000140
 30
0.000000000
 11
-102.179000000
 21
-37.635000000
 31
0.000000000
  0
LINE
  5
A6E
330
A02
100
AcDbEntity
  8
Sketch675
100
AcDbLine
 10
-99.179000000
 20
-37.635000000
 30
0.000000000
 11
-102.179000000
 21
-37.635000000
 31
0.000000000
  0
LINE
  5
A6F
330
A02
100
AcDbEntity
  8
Sketch675
100
AcDbLine
 10
-71.000000000
 20
-59.915000000
 30
0.000000000
 11
-99.179000000
 21
-37.635000000
 31
0.000000000
  0
LINE
  5
A70
330
A02
100
AcDbEntity
  8
Sketch675
100
AcDbLine
 10
-60.000000000
 20
-59.915000000
 30
0.000000000
 11
-71.000000000
 21
-59.915000000
 31
0.000000000
  0
LINE
  5
A71
330
A02
100
AcDbEntity
  8
Sketch675
100
AcDbLine
 10
-60.000000000
 20
-40.375000000
 30
0.000000000
 11
-60.000000000
 21
-59.915000000
 31
0.000000000
  0
LINE
  5
A72
330
A02
100
AcDbEntity
  8
Sketch675
100
AcDbLine
 10
-65.079000000
 20
47.325000000
 30
0.000000000
 11
-65.079000000
 21
54.425000000
 31
0.000000000
  0
LINE
  5
A73
330
A02
100
AcDbEntity
  8
Sketch675
100
AcDbLine
 10
-65.079000000
 20
54.425000000
 30
0.000000000
 11
-52.079000000
 21
54.425000000
 31
0.000000000
  0
LINE
  5
A74
330
A02
100
AcDbEntity
  8
Sketch675
100
AcDbLine
 10
-52.079000000
 20
54.425000000
 30
0.000000000
 11
-52.079000000
 21
47.325000000
 31
0.000000000
  0
LINE
  5
A75
330
A02
100
AcDbEntity
  8
Sketch675
100
AcDbLine
 10
-52.079000000
 20
47.325000000
 30
0.000000000
 11
-65.079000000
 21
47.325000000
 31
0.000000000
  0
ENDSEC
  0
SECTION
  2
OBJECTS
  0
DICTIONARY
  5
F000
330
0
100
AcDbDictionary
  3
ACAD_GROUP
350
F001
  0
DICTIONARY
  5
F001
330
F000
100
AcDbDictionary
  0
ENDSEC
  0
EOF